<?xml version="1.0" encoding="utf-8"?>
<!-- Generator: Adobe Illustrator 23.0.1, SVG Export Plug-In . SVG Version: 6.00 Build 0)  -->
<svg version="1.1" id="图层_1" xmlns="http://www.w3.org/2000/svg" xmlns:xlink="http://www.w3.org/1999/xlink" x="0px" y="0px"
	 viewBox="0 0 200 200" style="enable-background:new 0 0 200 200;" xml:space="preserve">
<style type="text/css">
	.st0{fill:#595959;}
</style>
<path class="st0" d="M154.5,84.8h0.9c17.9,0.6,32.4,15.2,32.4,33.3c0,18.5-14.8,33.3-33.3,33.3h-0.3c-10,19.7-30.6,33.3-54.2,33.3
	c-3.3,0-6.1-2.7-6.1-6.1s2.7-6.1,6.1-6.1c26.7,0,48.5-21.8,48.5-48.5V90.9C148.5,87.6,151.2,84.8,154.5,84.8z M45.5,84.8
	c3.3,0,6.1,2.7,6.1,6.1v54.5c0,3.3-2.7,6.1-6.1,6.1c-18.5,0-33.3-14.8-33.3-33.3S27,84.8,45.5,84.8L45.5,84.8z M39.4,97.9l-0.6,0.3
	c-8.5,2.7-14.5,10.6-14.5,20c0,9.7,6.4,17.6,15.2,20.3C39.4,138.5,39.4,97.9,39.4,97.9z M160.6,97.9v40.6
	c8.8-2.7,15.2-10.6,15.2-20.3c0-9.4-6.1-17.3-14.5-20C161.2,98.2,160.6,97.9,160.6,97.9z M100,15.2c30.9,0,57,23.3,60.3,53.9
	c0.3,3.3-2.1,6.4-5.5,6.7c-3.3,0.3-6.4-2.1-6.7-5.5c-2.7-24.2-23.3-43-48.2-43s-45.5,18.8-48.2,43c-0.3,3.3-3.3,5.8-6.7,5.5
	c-3.3-0.3-5.8-3.3-5.5-6.7C43,38.5,69.1,15.2,100,15.2z"/>
</svg>
