<?xml version="1.0" encoding="utf-8"?>
<!-- Generator: Adobe Illustrator 23.0.1, SVG Export Plug-In . SVG Version: 6.00 Build 0)  -->
<svg version="1.1" id="图层_1" xmlns="http://www.w3.org/2000/svg" xmlns:xlink="http://www.w3.org/1999/xlink" x="0px" y="0px"
	 viewBox="0 0 66 66" style="enable-background:new 0 0 66 66;" xml:space="preserve">
<style type="text/css">
	.st0{opacity:1.000000e-02;fill:none;stroke:#FFFFFF;stroke-width:0.1;enable-background:new    ;}
	.st1{fill:#595959;}
</style>
<title>图标/机构/主页/线性</title>
<desc>Created with Sketch.</desc>
<g>
	<rect id="矩形" x="0.1" y="0.1" class="st0" width="65.9" height="65.9"/>
	<path id="形状" class="st1" d="M42,52h9c0.6,0,1-0.4,1-1V25.7c0-0.4-0.2-0.7-0.5-0.9l-18-10.7c-0.3-0.2-0.7-0.2-1,0l-18,10.7
		C14.2,25,14,25.4,14,25.7V51c0,0.6,0.4,1,1,1h9V42c0-3.3,2.7-6,6-6h6c3.3,0,6,2.7,6,6V52L42,52z M12.4,21.4l18-10.7
		c1.6-0.9,3.5-0.9,5.1,0l18,10.7c1.5,0.9,2.4,2.5,2.4,4.3V51c0,2.8-2.2,5-5,5H15c-2.8,0-5-2.2-5-5V25.7C10,23.9,10.9,22.3,12.4,21.4
		z M38,52V42c0-1.1-0.9-2-2-2h-6c-1.1,0-2,0.9-2,2v10H38z"/>
</g>
</svg>
