<?xml version="1.0" encoding="utf-8"?>
<!-- Generator: Adobe Illustrator 23.0.1, SVG Export Plug-In . SVG Version: 6.00 Build 0)  -->
<svg version="1.1" id="图层_1" xmlns="http://www.w3.org/2000/svg" xmlns:xlink="http://www.w3.org/1999/xlink" x="0px" y="0px"
	 viewBox="0 0 66 66" style="enable-background:new 0 0 66 66;" xml:space="preserve">
<style type="text/css">
	.st0{opacity:1.000000e-02;fill:none;stroke:#FFFFFF;stroke-width:0.1;enable-background:new    ;}
	.st1{fill:#595959;}
</style>
<title>图标/APP/菜单栏/分类</title>
<desc>Created with Sketch.</desc>
<g>
	<rect id="矩形" x="0.1" y="0.1" class="st0" width="65.9" height="65.9"/>
	<path id="形状" class="st1" d="M11,9h18c1.1,0,2,0.9,2,2v18c0,1.1-0.9,2-2,2H11c-1.1,0-2-0.9-2-2V11C9,9.9,9.9,9,11,9z M13,13v14
		h14V13H13z M11,35h18c1.1,0,2,0.9,2,2v18c0,1.1-0.9,2-2,2H11c-1.1,0-2-0.9-2-2V37C9,35.9,9.9,35,11,35z M13,39v14h14V39H13z M37,35
		h18c1.1,0,2,0.9,2,2v18c0,1.1-0.9,2-2,2H37c-1.1,0-2-0.9-2-2V37C35,35.9,35.9,35,37,35z M39,39v14h14V39H39z M37,9h18
		c1.1,0,2,0.9,2,2s-0.9,2-2,2H37c-1.1,0-2-0.9-2-2S35.9,9,37,9z M37,18h18c1.1,0,2,0.9,2,2s-0.9,2-2,2H37c-1.1,0-2-0.9-2-2
		S35.9,18,37,18z M37,27h18c1.1,0,2,0.9,2,2s-0.9,2-2,2H37c-1.1,0-2-0.9-2-2S35.9,27,37,27z"/>
</g>
</svg>
