<?xml version="1.0" encoding="utf-8"?>
<!-- Generator: Adobe Illustrator 23.0.1, SVG Export Plug-In . SVG Version: 6.00 Build 0)  -->
<svg version="1.1" id="图层_1" xmlns="http://www.w3.org/2000/svg" xmlns:xlink="http://www.w3.org/1999/xlink" x="0px" y="0px"
	 viewBox="0 0 66 66" style="enable-background:new 0 0 66 66;" xml:space="preserve">
<style type="text/css">
	.st0{opacity:1.000000e-02;fill:none;stroke:#979797;stroke-width:0.1;enable-background:new    ;}
	.st1{fill:#595959;}
</style>
<title>图标/基础/加号/圆形/线性</title>
<desc>Created with Sketch.</desc>
<g>
	<rect id="矩形" x="0.1" y="0.1" class="st0" width="65.9" height="65.9"/>
	<path id="Shape" class="st1" d="M33,4C17,4,4,17,4,33s13,29,29,29s29-13,29-29S49,4,33,4z M50.7,50.7c-2.3,2.3-5,4.1-7.9,5.4
		c-3.1,1.3-6.4,2-9.7,2s-6.6-0.7-9.7-2c-3-1.3-5.6-3.1-7.9-5.4c-2.3-2.3-4.1-5-5.4-7.9c-1.3-3.1-2-6.4-2-9.7s0.7-6.6,2-9.7
		c1.3-3,3.1-5.6,5.4-7.9c2.3-2.3,5-4.1,7.9-5.4c3.1-1.3,6.4-2,9.7-2s6.6,0.7,9.7,2c3,1.3,5.6,3.1,7.9,5.4c2.3,2.3,4.1,5,5.4,7.9
		c1.3,3.1,2,6.4,2,9.7s-0.7,6.6-2,9.7C54.8,45.7,53,48.4,50.7,50.7z M45.9,31.1H35.1V21c0-1.1-0.9-2-2.1-2l0,0c-1.2,0-2.1,0.9-2.1,2
		v10.1H20.1c-1.2,0-2.1,0.9-2.1,2l0,0c0,1.1,0.9,2,2.1,2h10.8v10c0,1.1,0.9,2,2.1,2l0,0c1.2,0,2.1-0.9,2.1-2V35h10.8
		c1.2,0,2.1-0.9,2.1-2l0,0C48,31.9,47.1,31.1,45.9,31.1z"/>
</g>
</svg>
