<?xml version="1.0" encoding="utf-8"?>
<!-- Generator: Adobe Illustrator 23.0.1, SVG Export Plug-In . SVG Version: 6.00 Build 0)  -->
<svg version="1.1" id="图层_1" xmlns="http://www.w3.org/2000/svg" xmlns:xlink="http://www.w3.org/1999/xlink" x="0px" y="0px"
	 viewBox="0 0 66 66" style="enable-background:new 0 0 66 66;" xml:space="preserve">
<style type="text/css">
	.st0{opacity:1.000000e-02;fill:none;stroke:#FFFFFF;stroke-width:0.1;enable-background:new    ;}
	.st1{fill:#595959;}
</style>
<title>图标/加载</title>
<desc>Created with Sketch.</desc>
<g>
	<rect id="矩形" x="0.1" y="0.1" class="st0" width="65.9" height="65.9"/>
	<path id="形状" class="st1" d="M33,4c1.1,0,2,0.9,2,2v14c0,1.1-0.9,2-2,2c-1.1,0-2-0.9-2-2V6C31,4.9,31.9,4,33,4z M47.5,7.9
		c1,0.6,1.3,1.8,0.7,2.7l-7,12.1c-0.6,1-1.8,1.3-2.7,0.7s-1.3-1.8-0.7-2.7l7-12.1C45.3,7.7,46.5,7.3,47.5,7.9z M58.1,18.5
		c0.6,1,0.2,2.2-0.7,2.7l-12.1,7c-1,0.6-2.2,0.2-2.7-0.7s-0.2-2.2,0.7-2.7l12.1-7C56.3,17.2,57.6,17.5,58.1,18.5z M62,33
		c0,1.1-0.9,2-2,2H46c-1.1,0-2-0.9-2-2c0-1.1,0.9-2,2-2h14C61.1,31,62,31.9,62,33z M58.1,47.5c-0.6,1-1.8,1.3-2.7,0.7l-12.1-7
		c-1-0.6-1.3-1.8-0.7-2.7s1.8-1.3,2.7-0.7l12.1,7C58.3,45.3,58.7,46.5,58.1,47.5z M47.5,58.1c-1,0.6-2.2,0.2-2.7-0.7l-7-12.1
		c-0.6-1-0.2-2.2,0.7-2.7s2.2-0.2,2.7,0.7l7,12.1C48.8,56.3,48.5,57.6,47.5,58.1z M33,62c-1.1,0-2-0.9-2-2V46c0-1.1,0.9-2,2-2
		c1.1,0,2,0.9,2,2v14C35,61.1,34.1,62,33,62z M18.5,58.1c-1-0.6-1.3-1.8-0.7-2.7l7-12.1c0.6-1,1.8-1.3,2.7-0.7s1.3,1.8,0.7,2.7
		l-7,12.1C20.7,58.3,19.5,58.7,18.5,58.1z M7.9,47.5c-0.6-1-0.2-2.2,0.7-2.7l12.1-7c1-0.6,2.2-0.2,2.7,0.7s0.2,2.2-0.7,2.7l-12.1,7
		C9.7,48.8,8.4,48.5,7.9,47.5z M4,33c0-1.1,0.9-2,2-2h14c1.1,0,2,0.9,2,2c0,1.1-0.9,2-2,2H6C4.9,35,4,34.1,4,33z M7.9,18.5
		c0.6-1,1.8-1.3,2.7-0.7l12.1,7c1,0.6,1.3,1.8,0.7,2.7s-1.8,1.3-2.7,0.7l-12.1-7C7.7,20.7,7.3,19.5,7.9,18.5z M18.5,7.9
		c1-0.6,2.2-0.2,2.7,0.7l7,12.1c0.6,1,0.2,2.2-0.7,2.7s-2.2,0.2-2.7-0.7l-7-12.1C17.2,9.7,17.5,8.4,18.5,7.9z"/>
</g>
</svg>
