<?xml version="1.0" encoding="utf-8"?>
<!-- Generator: Adobe Illustrator 23.0.1, SVG Export Plug-In . SVG Version: 6.00 Build 0)  -->
<svg version="1.1" id="图层_1" xmlns="http://www.w3.org/2000/svg" xmlns:xlink="http://www.w3.org/1999/xlink" x="0px" y="0px"
	 viewBox="0 0 66 66" style="enable-background:new 0 0 66 66;" xml:space="preserve">
<style type="text/css">
	.st0{opacity:1.000000e-02;fill:none;stroke:#FFFFFF;stroke-width:0.1;enable-background:new    ;}
	.st1{fill-rule:evenodd;clip-rule:evenodd;fill:#595959;}
</style>
<title>图标/夏令营/夏令营/线性</title>
<desc>Created with Sketch.</desc>
<g>
	<rect id="矩形" x="0.1" y="0.1" class="st0" width="65.9" height="65.9"/>
	<path id="形状" class="st1" d="M14.3,51h37.2l-3.3-18.9L33,19.3L17.7,32.2L14.3,51z M10.3,51c0-0.1,0-0.2,0-0.4l3.5-19.7
		c0,0,0-0.1,0-0.1c0.1-0.5,0.3-0.9,0.7-1.3l15.3-12.9l-1-0.9c-0.8-0.7-1-2-0.2-2.8c0.7-0.8,2-1,2.8-0.2l1.6,1.3l1.5-1.2
		c0.8-0.7,2.1-0.6,2.8,0.2c0.7,0.8,0.6,2.1-0.2,2.8l-0.9,0.8l15,12.6c0.3,0.2,0.6,0.5,0.8,0.9c0.1,0.2,0.2,0.5,0.2,0.7l3.4,19.5
		c0,0.2,0,0.4,0,0.7H57c1.1,0,2,0.9,2,2s-0.9,2-2,2H9c-1.1,0-2-0.9-2-2s0.9-2,2-2H10.3L10.3,51z M33,35.7l-3.9,10.6
		c-0.4,1-1.5,1.6-2.6,1.2c-1-0.4-1.6-1.5-1.2-2.6l5.5-15c0.3-0.9,1.2-1.4,2.1-1.3c0.9-0.1,1.8,0.4,2.1,1.3l5.5,15
		c0.4,1-0.2,2.2-1.2,2.6s-2.2-0.2-2.6-1.2L33,35.7L33,35.7z"/>
</g>
</svg>
