<?xml version="1.0" encoding="utf-8"?>
<!-- Generator: Adobe Illustrator 23.0.1, SVG Export Plug-In . SVG Version: 6.00 Build 0)  -->
<svg version="1.1" id="图层_1" xmlns="http://www.w3.org/2000/svg" xmlns:xlink="http://www.w3.org/1999/xlink" x="0px" y="0px"
	 viewBox="0 0 66 66" style="enable-background:new 0 0 66 66;" xml:space="preserve">
<style type="text/css">
	.st0{opacity:1.000000e-02;fill:none;stroke:#FFFFFF;stroke-width:0.1;enable-background:new    ;}
	.st1{fill:#595959;}
</style>
<title>图标/机构/定位/线性</title>
<desc>Created with Sketch.</desc>
<g>
	<rect id="矩形" x="0.1" y="0.1" class="st0" width="65.9" height="65.9"/>
	<path id="形状" class="st1" d="M35,51.9c8.9-0.9,16-8,16.9-16.9H49c-1.1,0-2-0.9-2-2c0-1.1,0.9-2,2-2h2.9
		c-0.9-8.9-8-16-16.9-16.9V17c0,1.1-0.9,2-2,2c-1.1,0-2-0.9-2-2v-2.9c-8.9,0.9-16,8-16.9,16.9H17c1.1,0,2,0.9,2,2c0,1.1-0.9,2-2,2
		h-2.9c0.9,8.9,8,16,16.9,16.9V49c0-1.1,0.9-2,2-2c1.1,0,2,0.9,2,2V51.9L35,51.9z M31,55.9C19.9,55,11,46.1,10.1,35H9
		c-1.1,0-2-0.9-2-2c0-1.1,0.9-2,2-2h1.1c1-11.1,9.8-20,20.9-20.9V9c0-1.1,0.9-2,2-2c1.1,0,2,0.9,2,2v1.1c11.1,1,20,9.8,20.9,20.9H57
		c1.1,0,2,0.9,2,2c0,1.1-0.9,2-2,2h-1.1C55,46.1,46.1,55,35,55.9V57c0,1.1-0.9,2-2,2c-1.1,0-2-0.9-2-2V55.9L31,55.9z M33,37
		c-2.2,0-4-1.8-4-4s1.8-4,4-4s4,1.8,4,4S35.2,37,33,37z"/>
</g>
</svg>
