<?xml version="1.0" encoding="utf-8"?>
<!-- Generator: Adobe Illustrator 23.0.1, SVG Export Plug-In . SVG Version: 6.00 Build 0)  -->
<svg version="1.1" id="图层_1" xmlns="http://www.w3.org/2000/svg" xmlns:xlink="http://www.w3.org/1999/xlink" x="0px" y="0px"
	 viewBox="0 0 66 66" style="enable-background:new 0 0 66 66;" xml:space="preserve">
<style type="text/css">
	.st0{opacity:1.000000e-02;fill:none;stroke:#FFFFFF;stroke-width:0.1;enable-background:new    ;}
	.st1{fill:#595959;}
</style>
<title>图标/机构/搜索/线性</title>
<desc>Created with Sketch.</desc>
<g>
	<rect id="矩形" x="0.1" y="0.1" class="st0" width="65.9" height="65.9"/>
	<path id="形状" class="st1" d="M47.2,44.4l8.2,8.2c0.8,0.8,0.8,2,0,2.8s-2,0.8-2.8,0l-8.2-8.2c-3.6,3-8.3,4.8-13.4,4.8
		c-11.6,0-21-9.4-21-21s9.4-21,21-21s21,9.4,21,21C52,36.1,50.2,40.7,47.2,44.4L47.2,44.4z M31,48c9.4,0,17-7.6,17-17s-7.6-17-17-17
		s-17,7.6-17,17S21.6,48,31,48z"/>
</g>
</svg>
