<?xml version="1.0" encoding="utf-8"?>
<!-- Generator: Adobe Illustrator 23.0.1, SVG Export Plug-In . SVG Version: 6.00 Build 0)  -->
<svg version="1.1" id="图层_1" xmlns="http://www.w3.org/2000/svg" xmlns:xlink="http://www.w3.org/1999/xlink" x="0px" y="0px"
	 viewBox="0 0 66 66" style="enable-background:new 0 0 66 66;" xml:space="preserve">
<style type="text/css">
	.st0{opacity:1.000000e-02;fill:none;stroke:#FFFFFF;stroke-width:0.1;enable-background:new    ;}
	.st1{fill:#595959;}
</style>
<title>图标/机构/教师/线性</title>
<desc>Created with Sketch.</desc>
<g>
	<rect id="矩形" x="0.1" y="0.1" class="st0" width="65.9" height="65.9"/>
	<path id="形状" class="st1" d="M54,52h3c1.1,0,2,0.9,2,2s-0.9,2-2,2H9c-1.1,0-2-0.9-2-2s0.9-2,2-2h3v-7c0-1.1,0.9-2,2-2h13
		c2.4,0,4.5,1,6,2.7c1.5-1.7,3.6-2.7,6-2.7h13c1.1,0,2,0.9,2,2V52z M50,52v-5H39c-2.2,0-4,1.8-4,4v1H50z M31,52v-1c0-2.2-1.8-4-4-4
		H16v5H31L31,52z M43.2,40.4c-0.8,0.8-2,0.8-2.8,0.1c-0.8-0.8-0.8-2-0.1-2.8c3-3.2,4.8-7,4.8-10.6c0-7.6-5.2-13-12-13
		c-6.8,0-12,5.4-12,13c0,3.6,1.8,7.5,4.8,10.6c0.8,0.8,0.7,2.1-0.1,2.8c-0.8,0.8-2.1,0.7-2.8-0.1C19.2,36.5,17,31.7,17,27
		c0-9.7,7-17,16-17c9,0,16,7.3,16,17C49,31.7,46.8,36.5,43.2,40.4z"/>
</g>
</svg>
