<?xml version="1.0" encoding="utf-8"?>
<!-- Generator: Adobe Illustrator 23.0.1, SVG Export Plug-In . SVG Version: 6.00 Build 0)  -->
<svg version="1.1" id="图层_1" xmlns="http://www.w3.org/2000/svg" xmlns:xlink="http://www.w3.org/1999/xlink" x="0px" y="0px"
	 viewBox="0 0 66 66" style="enable-background:new 0 0 66 66;" xml:space="preserve">
<style type="text/css">
	.st0{opacity:1.000000e-02;fill:none;stroke:#FFFFFF;stroke-width:0.1;enable-background:new    ;}
	.st1{fill:#595959;}
</style>
<title>图标/机构/校区/线性</title>
<desc>Created with Sketch.</desc>
<g>
	<rect id="矩形" x="0.1" y="0.1" class="st0" width="65.9" height="65.9"/>
	<path id="形状" class="st1" d="M37.7,50.6L37,47.4c-0.2-1.1,0.5-2.1,1.6-2.4c1.1-0.2,2.1,0.5,2.4,1.6l0.7,3.7l9,1.7l-3.6-9.3
		c-0.4-1,0.1-2.2,1.1-2.6s2.2,0.1,2.6,1.1l5,13c0.6,1.5-0.8,3.1-2.4,2.6L40,54.1l-13.5,3.8c-0.4,0.1-0.7,0.1-1.1,0l-14-4
		c-1.2-0.3-1.8-1.6-1.3-2.8l6-13c0.5-1,1.7-1.4,2.7-1c1,0.5,1.4,1.7,1,2.7l-5,10.9L26,53.9L37.7,50.6L37.7,50.6z M33,40
		c0.9,0,2.5-0.9,4.8-3.1c1.7-1.6,3.5-3.8,4.9-5.6c1.5-2.1,2.3-4.5,2.3-7.1C45,17.4,39.6,12,33,12s-12,5.4-12,12.1
		c0,2.6,0.8,5,2.3,7.1c1.4,1.9,3.2,4,4.9,5.6C30.5,39.1,32.1,40,33,40z M33,44c-2.3,0-4.7-1.4-7.6-4.2c-1.9-1.8-3.9-4.2-5.4-6.2
		c-2-2.8-3.1-6-3.1-9.5C17,15.2,24.2,8,33,8s16,7.2,16,16.1c0,3.4-1.1,6.7-3.1,9.5c-1.4,2-3.4,4.3-5.4,6.2C37.7,42.6,35.3,44,33,44z
		 M33,27c1.7,0,3-1.3,3-3s-1.3-3-3-3c-1.7,0-3,1.3-3,3S31.3,27,33,27z M33,31c-3.9,0-7-3.1-7-7s3.1-7,7-7s7,3.1,7,7S36.9,31,33,31z"
		/>
</g>
</svg>
