<?xml version="1.0" encoding="utf-8"?>
<!-- Generator: Adobe Illustrator 23.0.1, SVG Export Plug-In . SVG Version: 6.00 Build 0)  -->
<svg version="1.1" id="图层_1" xmlns="http://www.w3.org/2000/svg" xmlns:xlink="http://www.w3.org/1999/xlink" x="0px" y="0px"
	 viewBox="0 0 66 66" style="enable-background:new 0 0 66 66;" xml:space="preserve">
<style type="text/css">
	.st0{opacity:1.000000e-02;fill:none;stroke:#FFFFFF;stroke-width:0.1;enable-background:new    ;}
	.st1{fill:#595959;}
</style>
<title>图标/机构/相册/线性</title>
<desc>Created with Sketch.</desc>
<g>
	<rect id="矩形" x="0.1" y="0.1" class="st0" width="65.9" height="65.9"/>
	<path id="形状" class="st1" d="M40.5,33c5.4,0,10.3,2.3,13.7,6c0.5-1.9,0.8-3.9,0.8-6c0-12.1-9.8-22-22-22s-22,9.9-22,22
		c0,0.7,0,1.4,0.1,2c2.2-1.3,4.7-2,7.4-2c4,0,7.6,1.6,10.2,4.2C31.9,34.6,36,33,40.5,33z M33,55c8.4,0,15.8-4.7,19.4-11.7
		c-2.6-3.8-7-6.3-11.9-6.3c-3.6,0-6.8,1.3-9.3,3.4c-1.1,0.9-2.1,2.1-2.9,3.3C26.8,46,26,48.6,26,51.5c0,0.8,0.1,1.6,0.2,2.4
		c0.2,0,0.3,0.1,0.5,0.1c1.4,0.4,2.8,0.7,4.3,0.8C31.6,55,32.3,55,33,55z M11.9,39.3c1.6,5.4,5.3,10,10.1,12.7c0-0.2,0-0.4,0-0.6
		c0-4.3,1.5-8.3,3.9-11.4C24,38.2,21.4,37,18.5,37C16,37,13.7,37.9,11.9,39.3z M33,7c14.4,0,26,11.6,26,26c0,3.6-0.7,7-2,10.1
		c-0.7,1.6-1.5,3.1-2.5,4.6C49.8,54.5,41.9,59,33,59c-1.7,0-3.4-0.2-5.1-0.5c0,0-0.1,0-0.1,0.1c0,0,0-0.1-0.1-0.1
		c-1.7-0.3-3.3-0.8-4.8-1.5c0,0-0.1,0-0.1,0.1c0,0,0-0.1,0-0.1C16.6,54.3,11.6,49.3,9,43c-0.7-1.6-1.2-3.2-1.5-5
		C7.2,36.4,7,34.7,7,33C7,18.6,18.6,7,33,7z M29.5,29c-1.9,0-3.5-1.6-3.5-3.5s1.6-3.5,3.5-3.5s3.5,1.6,3.5,3.5S31.4,29,29.5,29z"/>
</g>
</svg>
