<?xml version="1.0" encoding="utf-8"?>
<!-- Generator: Adobe Illustrator 23.0.1, SVG Export Plug-In . SVG Version: 6.00 Build 0)  -->
<svg version="1.1" id="图层_1" xmlns="http://www.w3.org/2000/svg" xmlns:xlink="http://www.w3.org/1999/xlink" x="0px" y="0px"
	 viewBox="0 0 66 66" style="enable-background:new 0 0 66 66;" xml:space="preserve">
<style type="text/css">
	.st0{opacity:1.000000e-02;fill:none;stroke:#FFFFFF;stroke-width:0.1;enable-background:new    ;}
	.st1{fill:#595959;}
</style>
<title>图标/机构/筛选/线性</title>
<desc>Created with Sketch.</desc>
<g>
	<rect id="矩形" x="0.1" y="0.1" class="st0" width="65.9" height="65.9"/>
	<path id="形状" class="st1" d="M16.6,15l12.2,16.6c0.1,0.2,0.2,0.4,0.2,0.6v12.5c0,0.3,0.2,0.6,0.4,0.8l6.6,4.4
		c0.3,0.2,0.6,0.1,0.8-0.2c0.1-0.1,0.1-0.2,0.1-0.3V32.1c0-0.2,0.1-0.4,0.2-0.6L49.4,15c0.2-0.3,0.1-0.6-0.1-0.8
		C49.2,14,49,14,48.9,14H17.1c-0.3,0-0.6,0.3-0.6,0.6C16.5,14.7,16.5,14.9,16.6,15z M24.6,32.6L10.3,13.2c-0.7-0.9-0.5-2.1,0.4-2.8
		c0.3-0.3,0.8-0.4,1.2-0.4H54c1.1,0,2,0.9,2,2c0,0.4-0.1,0.8-0.4,1.2L41.4,32.6c-0.3,0.3-0.4,0.8-0.4,1.2v20.5c0,1.1-0.9,2-2,2
		c-0.4,0-0.8-0.1-1.1-0.3l-12-8c-0.6-0.4-0.9-1-0.9-1.7V33.8C25,33.3,24.9,32.9,24.6,32.6z"/>
</g>
</svg>
