<?xml version="1.0" encoding="utf-8"?>
<!-- Generator: Adobe Illustrator 23.0.1, SVG Export Plug-In . SVG Version: 6.00 Build 0)  -->
<svg version="1.1" id="图层_1" xmlns="http://www.w3.org/2000/svg" xmlns:xlink="http://www.w3.org/1999/xlink" x="0px" y="0px"
	 viewBox="0 0 16 16" style="enable-background:new 0 0 16 16;" xml:space="preserve">
<style type="text/css">
	.st0{opacity:1.000000e-02;fill:none;stroke:#FFFFFF;stroke-width:0.5;enable-background:new    ;}
	.st1{fill-rule:evenodd;clip-rule:evenodd;fill-opacity:0;}
	.st2{fill:#595959;}
</style>
<title>标签/角标/异形/精</title>
<desc>Created with Sketch.</desc>
<g>
	<rect id="矩形" x="0.2" y="0.2" class="st0" width="15.5" height="15.5"/>
	<g id="精评" transform="translate(1.000000, 0.000000)">
		<rect x="1" y="2" class="st1" width="12" height="12"/>
		<path id="形状" class="st2" d="M12.2,11.4l-0.5,0.3l1.5,2.5l-2.2-0.3L10.3,16l-1.6-2.6l-0.3,0.2c-0.9,0.5-2,0.5-2.8,0l-0.3-0.2
			L3.8,16L3,13.9l-2.2,0.4l1.5-2.6l-0.5-0.3C0.9,10.9,0.3,10,0.3,9V5c0-1,0.5-1.9,1.4-2.4l3.7-2.1c1-0.5,2.1-0.5,3.1,0l3.7,2.1
			C13.1,3,13.7,3.9,13.7,5v4C13.7,10,13.1,10.9,12.2,11.4z M3.9,14.1L3.9,14.1L4.6,13L3,12.1l-0.6,1.1l0.5-0.1L3.5,13l0.2,0.6
			L3.9,14.1z M11.2,13l0.5,0.1l-0.7-1.1l-1.6,1l0.7,1.1l0.2-0.5l0.2-0.6L11.2,13L11.2,13z M7,13.2L7,13.2c0.4,0,0.7-0.1,1-0.2
			l3.8-2.2c0.6-0.4,1-1,1-1.7V5c0-0.7-0.4-1.4-1-1.7L8.1,1.1c-0.7-0.4-1.6-0.4-2.3,0L2.2,3.2c-0.6,0.4-1,1-1,1.7v4
			c0,0.7,0.4,1.4,1,1.7L5,12.4l0.7,0.4L6,12.9C6.3,13.1,6.6,13.2,7,13.2z M3.4,6.2h1.1V3.5h0.7v2.8h0.9v0.7H5.2v0.2
			c0.4,0.3,0.7,0.8,1.1,1.2L5.9,9C5.7,8.6,5.4,8.2,5.2,7.8v3H4.5V8C4.3,8.6,3.9,9.2,3.6,9.7L3.2,8.9c0.5-0.6,1-1.3,1.2-2h-1V6.2z
			 M6.3,4.1c0,0.6-0.2,1.2-0.4,1.8L5.4,5.7C5.6,5.1,5.7,4.6,5.7,4L6.3,4.1z M4.3,5.8L3.8,5.9C3.7,5.3,3.5,4.8,3.4,4.3L4,4.1
			C4.1,4.6,4.2,5.2,4.3,5.8L4.3,5.8z M8.2,3.4h0.7v0.5h1.6v0.6H8.9v0.4h1.4v0.6H8.9v0.4h1.8v0.6H6.3V5.9h1.8V5.5H6.7V4.9h1.4V4.5
			H6.5V3.9h1.7L8.2,3.4z M7.4,8.6V9h2.2V8.6H7.4z M9.6,8V7.5H7.4V8H9.6z M7.4,9.6v1.2H6.7V6.9h3.6V10c0,0.2-0.1,0.4-0.2,0.5
			c-0.1,0.1-0.3,0.2-0.6,0.2H9l-0.2-0.7l0.5,0c0.2,0,0.2-0.1,0.2-0.3V9.6L7.4,9.6z"/>
	</g>
</g>
</svg>
