<?xml version="1.0" encoding="utf-8"?>
<!-- Generator: Adobe Illustrator 23.0.1, SVG Export Plug-In . SVG Version: 6.00 Build 0)  -->
<svg version="1.1" id="图层_1" xmlns="http://www.w3.org/2000/svg" xmlns:xlink="http://www.w3.org/1999/xlink" x="0px" y="0px"
	 viewBox="0 0 66 66" style="enable-background:new 0 0 66 66;" xml:space="preserve">
<style type="text/css">
	.st0{opacity:1.000000e-02;fill:none;stroke:#FFFFFF;stroke-width:0.1;enable-background:new    ;}
	.st1{fill:#595959;}
</style>
<title>图标/机构/菜单/线性</title>
<desc>Created with Sketch.</desc>
<g>
	<rect id="矩形" x="0.1" y="0.1" class="st0" width="65.9" height="65.9"/>
	<path id="形状" class="st1" d="M13,15h40c1.1,0,2,0.9,2,2s-0.9,2-2,2H13c-1.1,0-2-0.9-2-2S11.9,15,13,15z M13,31h40
		c1.1,0,2,0.9,2,2c0,1.1-0.9,2-2,2H13c-1.1,0-2-0.9-2-2C11,31.9,11.9,31,13,31z M13,47h40c1.1,0,2,0.9,2,2s-0.9,2-2,2H13
		c-1.1,0-2-0.9-2-2S11.9,47,13,47z"/>
</g>
</svg>
