<?xml version="1.0" encoding="utf-8"?>
<!-- Generator: Adobe Illustrator 23.0.1, SVG Export Plug-In . SVG Version: 6.00 Build 0)  -->
<svg version="1.1" id="图层_1" xmlns="http://www.w3.org/2000/svg" xmlns:xlink="http://www.w3.org/1999/xlink" x="0px" y="0px"
	 viewBox="0 0 66 66" style="enable-background:new 0 0 66 66;" xml:space="preserve">
<style type="text/css">
	.st0{opacity:1.000000e-02;fill:none;stroke:#FFFFFF;stroke-width:0.1;enable-background:new    ;}
	.st1{fill:#595959;}
</style>
<title>图标/机构/评价/线性</title>
<desc>Created with Sketch.</desc>
<g>
	<rect id="矩形" x="0.1" y="0.1" class="st0" width="65.9" height="65.9"/>
	<path id="形状" class="st1" d="M52.6,44.1c0-0.6,0.1-1.3,0.4-1.8c1.4-2.9,2.1-6,2.1-9.3c0-12.2-9.8-22-22-22s-22,9.8-22,22
		s9.8,22,22,22c3.3,0,6.4-0.7,9.3-2.1c0.6-0.3,1.2-0.4,1.8-0.4l8.7,0.3L52.6,44.1z M33,59C18.6,59,7,47.4,7,33S18.6,7,33,7
		s26,11.6,26,26c0,3.9-0.9,7.7-2.4,11l0.4,10.9c0,0,0,0.1,0,0.1c0,1.1-1,2-2.1,1.9L44,56.6C40.7,58.1,36.9,59,33,59z M42.9,26.3
		c3.1,3.1,3.1,8.2,0,11.3L37.6,43c-2.5,2.5-6.7,2.5-9.2,0l-5.3-5.3c-3.1-3.1-3.1-8.2,0-11.3c2.7-2.7,6.8-3.1,9.9-1.1
		C36.1,23.3,40.2,23.7,42.9,26.3z M25.9,34.8l5.3,5.3c1,1,2.6,1,3.5,0l5.3-5.3c1.6-1.6,1.6-4.1,0-5.7c-1.6-1.6-4.1-1.6-5.7,0
		L33,30.6l-1.4-1.4c-1.6-1.6-4.1-1.6-5.7,0C24.4,30.7,24.4,33.3,25.9,34.8z"/>
</g>
</svg>
