<?xml version="1.0" encoding="utf-8"?>
<!-- Generator: Adobe Illustrator 23.0.1, SVG Export Plug-In . SVG Version: 6.00 Build 0)  -->
<svg version="1.1" id="图层_1" xmlns="http://www.w3.org/2000/svg" xmlns:xlink="http://www.w3.org/1999/xlink" x="0px" y="0px"
	 viewBox="0 0 66 66" style="enable-background:new 0 0 66 66;" xml:space="preserve">
<style type="text/css">
	.st0{opacity:1.000000e-02;fill:none;stroke:#FFFFFF;stroke-width:0.1;enable-background:new    ;}
	.st1{fill:#595959;}
</style>
<title>图标/机构/课程/线性</title>
<desc>Created with Sketch.</desc>
<g>
	<rect id="矩形" x="0.1" y="0.1" class="st0" width="65.9" height="65.9"/>
	<path id="形状" class="st1" d="M33,15.1L17.6,21L33,26.9L48.4,21L33,15.1z M33.7,11.1l21,8c1.7,0.7,1.7,3.1,0,3.7l-21,8
		c-0.5,0.2-1,0.2-1.4,0l-21-8c-1.7-0.7-1.7-3.1,0-3.7l21-8C32.7,11,33.3,11,33.7,11.1z M53.3,31.1c1-0.4,2.2,0.1,2.6,1.2
		c0.4,1-0.1,2.2-1.2,2.6L33,43.1l-21.7-8.3c-1-0.4-1.6-1.5-1.2-2.6s1.5-1.6,2.6-1.2L33,38.9L53.3,31.1z M53.3,43.1
		c1-0.4,2.2,0.1,2.6,1.2c0.4,1-0.1,2.2-1.2,2.6L33,55.1l-21.7-8.3c-1-0.4-1.6-1.5-1.2-2.6s1.5-1.6,2.6-1.2L33,50.9L53.3,43.1z"/>
</g>
</svg>
