<?xml version="1.0" encoding="utf-8"?>
<!-- Generator: Adobe Illustrator 23.0.1, SVG Export Plug-In . SVG Version: 6.00 Build 0)  -->
<svg version="1.1" id="图层_1" xmlns="http://www.w3.org/2000/svg" xmlns:xlink="http://www.w3.org/1999/xlink" x="0px" y="0px"
	 viewBox="0 0 66 66" style="enable-background:new 0 0 66 66;" xml:space="preserve">
<style type="text/css">
	.st0{opacity:1.000000e-02;fill:none;stroke:#FFFFFF;stroke-width:0.1;enable-background:new    ;}
	.st1{fill:#595959;}
</style>
<title>图标/机构/资料/线性</title>
<desc>Created with Sketch.</desc>
<g>
	<rect id="矩形" x="0.1" y="0.1" class="st0" width="65.9" height="65.9"/>
	<path id="形状" class="st1" d="M14,19v28c0,1.1,0.9,2,2,2h34c1.1,0,2-0.9,2-2V28c0-1.1-0.9-2-2-2H34.6c-0.9,0-1.6-0.6-1.9-1.4
		l-2.1-6.3c-0.3-0.8-1-1.4-1.9-1.4H16C14.9,17,14,17.9,14,19z M14,13h16.1c1.7,0,3.3,1.1,3.8,2.7l1.6,4.9c0.3,0.8,1,1.4,1.9,1.4H52
		c2.2,0,4,1.8,4,4v23c0,2.2-1.8,4-4,4H14c-2.2,0-4-1.8-4-4V17C10,14.8,11.8,13,14,13z M14,33h28c1.1,0,2,0.9,2,2s-0.9,2-2,2H14V33z"
		/>
</g>
</svg>
