<?xml version="1.0" encoding="utf-8"?>
<!-- Generator: Adobe Illustrator 23.0.1, SVG Export Plug-In . SVG Version: 6.00 Build 0)  -->
<svg version="1.1" id="图层_1" xmlns="http://www.w3.org/2000/svg" xmlns:xlink="http://www.w3.org/1999/xlink" x="0px" y="0px"
	 viewBox="0 0 66 66" style="enable-background:new 0 0 66 66;" xml:space="preserve">
<style type="text/css">
	.st0{opacity:1.000000e-02;fill:none;stroke:#FFFFFF;stroke-width:0.1;enable-background:new    ;}
	.st1{fill:#595959;}
</style>
<title>图标/机构/资讯/线性</title>
<desc>Created with Sketch.</desc>
<g>
	<rect id="矩形" x="0.1" y="0.1" class="st0" width="65.9" height="65.9"/>
	<path id="形状" class="st1" d="M17,16v34c0,1.1,0.9,2,2,2h21.2c0.6,0,1.2-0.3,1.5-0.7l6.8-8.2c0.3-0.4,0.5-0.8,0.5-1.3V16
		c0-1.1-0.9-2-2-2H19C17.9,14,17,14.9,17,16z M17,10h32c2.2,0,4,1.8,4,4v28.6c0,0.9-0.3,1.8-0.9,2.6l-7.9,9.4
		c-0.8,0.9-1.9,1.4-3.1,1.4H17c-2.2,0-4-1.8-4-4V14C13,11.8,14.8,10,17,10z M23,22h20c1.1,0,2,0.9,2,2s-0.9,2-2,2H23
		c-1.1,0-2-0.9-2-2S21.9,22,23,22z M23,30h12c1.1,0,2,0.9,2,2c0,1.1-0.9,2-2,2H23c-1.1,0-2-0.9-2-2C21,30.9,21.9,30,23,30z"/>
</g>
</svg>
