<?xml version="1.0" encoding="utf-8"?>
<!-- Generator: Adobe Illustrator 23.0.1, SVG Export Plug-In . SVG Version: 6.00 Build 0)  -->
<svg version="1.1" id="图层_1" xmlns="http://www.w3.org/2000/svg" xmlns:xlink="http://www.w3.org/1999/xlink" x="0px" y="0px"
	 viewBox="0 0 66 66" style="enable-background:new 0 0 66 66;" xml:space="preserve">
<style type="text/css">
	.st0{opacity:1.000000e-02;fill:none;stroke:#FFFFFF;stroke-width:0.1;enable-background:new    ;}
	.st1{fill:#595959;}
</style>
<title>图标/机构/距离/线性</title>
<desc>Created with Sketch.</desc>
<g>
	<rect id="矩形" x="0.1" y="0.1" class="st0" width="65.9" height="65.9"/>
	<path id="Fill-1" class="st1" d="M54,10c-0.2,0-0.5,0-0.7,0.1L11.3,26c-1.9,0.7-1.8,3.4,0.2,3.9c7.8,1.8,13.4,4.4,16.8,7.8
		c3.4,3.4,6,8.9,7.8,16.8c0.2,1,1.1,1.6,2,1.6c0.8,0,1.6-0.4,1.9-1.3l15.9-41.9C56.4,11.3,55.3,10,54,10L54,10z M38.9,46.1
		c-0.2,0.5-0.9,0.5-1.1,0c-1.8-4.9-4-8.6-6.7-11.3c-2.7-2.7-6.4-4.9-11.3-6.7c-0.5-0.2-0.5-0.9,0-1.1l29.5-11.1
		c0.5-0.2,1,0.3,0.8,0.8L38.9,46.1z"/>
</g>
</svg>
