<?xml version="1.0" encoding="utf-8"?>
<!-- Generator: Adobe Illustrator 23.0.1, SVG Export Plug-In . SVG Version: 6.00 Build 0)  -->
<svg version="1.1" id="图层_1" xmlns="http://www.w3.org/2000/svg" xmlns:xlink="http://www.w3.org/1999/xlink" x="0px" y="0px"
	 viewBox="0 0 66 66" style="enable-background:new 0 0 66 66;" xml:space="preserve">
<style type="text/css">
	.st0{opacity:1.000000e-02;fill:none;stroke:#FFFFFF;stroke-width:0.1;enable-background:new    ;}
	.st1{fill:#595959;}
</style>
<title>图标/机构/主页/线性</title>
<desc>Created with Sketch.</desc>
<g>
	<rect id="矩形" x="0.1" y="0.1" class="st0" width="65.9" height="65.9"/>
	<path id="形状" class="st1" d="M42,55h13V24.3L33,11.6L11,24.3V55h13V38c0-1.1,0.9-2,2-2h14c1.1,0,2,0.9,2,2V55z M8,21.4L32,7.6
		c0.6-0.4,1.4-0.4,2,0l24,13.8c0.6,0.4,1,1,1,1.7V57c0,1.1-0.9,2-2,2H9c-1.1,0-2-0.9-2-2V23.2C7,22.4,7.4,21.8,8,21.4z M28,40v15h10
		V40H28z"/>
</g>
</svg>
