<?xml version="1.0" encoding="utf-8"?>
<!-- Generator: Adobe Illustrator 23.0.1, SVG Export Plug-In . SVG Version: 6.00 Build 0)  -->
<svg version="1.1" id="图层_1" xmlns="http://www.w3.org/2000/svg" xmlns:xlink="http://www.w3.org/1999/xlink" x="0px" y="0px"
	 viewBox="0 0 66 66" style="enable-background:new 0 0 66 66;" xml:space="preserve">
<style type="text/css">
	.st0{opacity:1.000000e-02;fill:none;stroke:#FFFFFF;stroke-width:0.1;enable-background:new    ;}
	.st1{fill:#595959;}
</style>
<title>图标/经典/定位/块状</title>
<desc>Created with Sketch.</desc>
<g>
	<rect id="矩形" x="0.1" y="0.1" class="st0" width="65.9" height="65.9"/>
	<path id="形状" class="st1" d="M58.9,35C58,47.8,47.8,58,35,58.9V61c0,1.1-0.9,2-2,2c-1.1,0-2-0.9-2-2v-2.1
		C18.2,58,8,47.8,7.1,35H5c-1.1,0-2-0.9-2-2c0-1.1,0.9-2,2-2h2.1C8,18.2,18.2,8,31,7.1V5c0-1.1,0.9-2,2-2c1.1,0,2,0.9,2,2v2.1
		C47.8,8,58,18.2,58.9,31H61c1.1,0,2,0.9,2,2c0,1.1-0.9,2-2,2H58.9L58.9,35z M33,41c4.4,0,8-3.6,8-8s-3.6-8-8-8s-8,3.6-8,8
		S28.6,41,33,41z M33,37c-2.2,0-4-1.8-4-4s1.8-4,4-4s4,1.8,4,4S35.2,37,33,37z"/>
</g>
</svg>
