<?xml version="1.0" encoding="utf-8"?>
<!-- Generator: Adobe Illustrator 23.0.1, SVG Export Plug-In . SVG Version: 6.00 Build 0)  -->
<svg version="1.1" id="图层_1" xmlns="http://www.w3.org/2000/svg" xmlns:xlink="http://www.w3.org/1999/xlink" x="0px" y="0px"
	 viewBox="0 0 66 66" style="enable-background:new 0 0 66 66;" xml:space="preserve">
<style type="text/css">
	.st0{opacity:1.000000e-02;fill:none;stroke:#FFFFFF;stroke-width:0.1;enable-background:new    ;}
	.st1{fill:#595959;}
</style>
<title>图标/管家/播放/块状</title>
<desc>Created with Sketch.</desc>
<g>
	<rect id="矩形" x="0.1" y="0.1" class="st0" width="65.9" height="65.9"/>
	<path id="形状" class="st1" d="M33,62C17,62,4,49,4,33S17,4,33,4s29,13,29,29S49,62,33,62z M43.6,35.6c0.4-0.3,0.8-0.6,1.1-1.1
		c0.8-1.4,0.4-3.3-1.1-4.1l-13.1-7.7c-0.5-0.3-1-0.4-1.5-0.4c-1.7,0-3,1.3-3,3v15.5c0,0.5,0.1,1.1,0.4,1.5c0.8,1.4,2.7,1.9,4.1,1.1
		L43.6,35.6z"/>
</g>
</svg>
