<?xml version="1.0" encoding="utf-8"?>
<!-- Generator: Adobe Illustrator 23.0.1, SVG Export Plug-In . SVG Version: 6.00 Build 0)  -->
<svg version="1.1" id="图层_1" xmlns="http://www.w3.org/2000/svg" xmlns:xlink="http://www.w3.org/1999/xlink" x="0px" y="0px"
	 viewBox="0 0 66 66" style="enable-background:new 0 0 66 66;" xml:space="preserve">
<style type="text/css">
	.st0{opacity:1.000000e-02;fill:none;stroke:#FFFFFF;stroke-width:0.1;enable-background:new    ;}
	.st1{fill:#595959;}
</style>
<title>图标/管家/播放/线性</title>
<desc>Created with Sketch.</desc>
<g>
	<rect id="矩形" x="0.1" y="0.1" class="st0" width="65.9" height="65.9"/>
	<path id="形状" class="st1" d="M33,62C17,62,4,49,4,33S17,4,33,4s29,13,29,29S49,62,33,62z M33,58c13.8,0,25-11.2,25-25
		S46.8,8,33,8S8,19.2,8,33S19.2,58,33,58z M43.6,35.6l-13.1,7.7c-1.4,0.8-3.3,0.4-4.1-1.1c-0.3-0.5-0.4-1-0.4-1.5V25.3
		c0-1.7,1.3-3,3-3c0.5,0,1.1,0.1,1.5,0.4l13.1,7.7c1.4,0.8,1.9,2.7,1.1,4.1C44.4,35,44.1,35.3,43.6,35.6z"/>
</g>
</svg>
