<?xml version="1.0" encoding="utf-8"?>
<!-- Generator: Adobe Illustrator 23.0.1, SVG Export Plug-In . SVG Version: 6.00 Build 0)  -->
<svg version="1.1" id="图层_1" xmlns="http://www.w3.org/2000/svg" xmlns:xlink="http://www.w3.org/1999/xlink" x="0px" y="0px"
	 viewBox="0 0 66 66" style="enable-background:new 0 0 66 66;" xml:space="preserve">
<style type="text/css">
	.st0{opacity:1.000000e-02;fill:none;stroke:#FFFFFF;stroke-width:0.1;enable-background:new    ;}
	.st1{fill:#595959;}
</style>
<title>图标/管家/暂停/块状</title>
<desc>Created with Sketch.</desc>
<g>
	<rect id="矩形" x="0.1" y="0.1" class="st0" width="65.9" height="65.9"/>
	<path id="形状" class="st1" d="M33,62C17,62,4,49,4,33S17,4,33,4s29,13,29,29S49,62,33,62z M27,22c-1.1,0-2,0.9-2,2v18
		c0,1.1,0.9,2,2,2s2-0.9,2-2V24C29,22.9,28.1,22,27,22z M39,22c-1.1,0-2,0.9-2,2v18c0,1.1,0.9,2,2,2s2-0.9,2-2V24
		C41,22.9,40.1,22,39,22z"/>
</g>
</svg>
