<?xml version="1.0" encoding="utf-8"?>
<!-- Generator: Adobe Illustrator 23.0.1, SVG Export Plug-In . SVG Version: 6.00 Build 0)  -->
<svg version="1.1" id="图层_1" xmlns="http://www.w3.org/2000/svg" xmlns:xlink="http://www.w3.org/1999/xlink" x="0px" y="0px"
	 viewBox="0 0 66 66" style="enable-background:new 0 0 66 66;" xml:space="preserve">
<style type="text/css">
	.st0{opacity:1.000000e-02;fill:none;stroke:#FFFFFF;stroke-width:0.1;enable-background:new    ;}
	.st1{fill:#595959;}
</style>
<title>图标/机构/简介/线性</title>
<desc>Created with Sketch.</desc>
<g>
	<rect id="矩形" x="0.1" y="0.1" class="st0" width="65.9" height="65.9"/>
	<path id="形状" class="st1" d="M14,24v30.1l16-9.1c1.8-1,4.1-1,5.9,0l16,9.1V10H14v10h28c1.1,0,2,0.9,2,2s-0.9,2-2,2H14z M12,6
		h42c1.1,0,2,0.9,2,2v49.6c0,1.1-0.9,2-2,2c-0.3,0-0.7-0.1-1-0.3L34,48.6c-0.6-0.3-1.4-0.3-2,0L13,59.3c-1,0.5-2.2,0.2-2.7-0.8
		c-0.2-0.3-0.3-0.6-0.3-1V8C10,6.9,10.9,6,12,6z"/>
</g>
</svg>
