<?xml version="1.0" encoding="utf-8"?>
<!-- Generator: Adobe Illustrator 23.0.1, SVG Export Plug-In . SVG Version: 6.00 Build 0)  -->
<svg version="1.1" id="图层_1" xmlns="http://www.w3.org/2000/svg" xmlns:xlink="http://www.w3.org/1999/xlink" x="0px" y="0px"
	 viewBox="0 0 66 66" style="enable-background:new 0 0 66 66;" xml:space="preserve">
<style type="text/css">
	.st0{opacity:1.000000e-02;fill:none;stroke:#FFFFFF;stroke-width:0.1;enable-background:new    ;}
	.st1{fill:#595959;}
</style>
<title>图标/经典/统计/线性</title>
<desc>Created with Sketch.</desc>
<g>
	<rect id="矩形" x="0.1" y="0.1" class="st0" width="65.9" height="65.9"/>
	<path id="形状" class="st1" d="M57.4,9.6L57.4,9.6C57.8,10,58,10.5,58,11v9c0,1.1-0.9,2-2,2s-2-0.9-2-2v-4.2L41.4,28.4
		c-0.8,0.8-2,0.8-2.8,0L25,14.8L10.4,29.4c-0.8,0.8-2,0.8-2.8,0c-0.8-0.8-0.8-2,0-2.8l16-16c0.8-0.8,2-0.8,2.8,0L40,24.2L51.2,13H47
		c-1.1,0-2-0.9-2-2s0.9-2,2-2h9C56.6,9,57.1,9.2,57.4,9.6L57.4,9.6z M26,30c1.1,0,2,0.9,2,2v24c0,1.1-0.9,2-2,2s-2-0.9-2-2V32
		C24,30.9,24.9,30,26,30z M12,42c1.1,0,2,0.9,2,2v12c0,1.1-0.9,2-2,2s-2-0.9-2-2V44C10,42.9,10.9,42,12,42z M40,42c1.1,0,2,0.9,2,2
		v12c0,1.1-0.9,2-2,2s-2-0.9-2-2V44C38,42.9,38.9,42,40,42z M54,30c1.1,0,2,0.9,2,2v24c0,1.1-0.9,2-2,2s-2-0.9-2-2V32
		C52,30.9,52.9,30,54,30z"/>
</g>
</svg>
