<?xml version="1.0" encoding="utf-8"?>
<!-- Generator: Adobe Illustrator 23.0.1, SVG Export Plug-In . SVG Version: 6.00 Build 0)  -->
<svg version="1.1" id="图层_1" xmlns="http://www.w3.org/2000/svg" xmlns:xlink="http://www.w3.org/1999/xlink" x="0px" y="0px"
	 viewBox="0 0 66 66" style="enable-background:new 0 0 66 66;" xml:space="preserve">
<style type="text/css">
	.st0{opacity:1.000000e-02;fill:none;stroke:#FFFFFF;stroke-width:0.1;enable-background:new    ;}
	.st1{fill-rule:evenodd;clip-rule:evenodd;fill:#595959;}
</style>
<title>图标/经典/统计/块状</title>
<desc>Created with Sketch.</desc>
<g>
	<rect id="矩形" x="0.1" y="0.1" class="st0" width="65.9" height="65.9"/>
	<path id="形状" class="st1" d="M51.2,13H47c-1.1,0-2-0.9-2-2s0.9-2,2-2h9c1.1,0,2,0.9,2,2v0v0v9c0,1.1-0.9,2-2,2s-2-0.9-2-2v-4.2
		L41.4,28.4c-0.8,0.8-2,0.8-2.8,0L25,14.8L10.4,29.4c-0.8,0.8-2,0.8-2.8,0c-0.8-0.8-0.8-2,0-2.8l16-16c0.8-0.8,2-0.8,2.8,0L40,24.2
		L51.2,13z M9.6,43.4l15-14.1c0.8-0.7,2-0.7,2.8,0l11.3,11.3c0.8,0.8,2,0.8,2.8,0l12.2-11.5c0.8-0.8,2.1-0.7,2.8,0.1
		c0.3,0.4,0.5,0.9,0.5,1.4V56c0,1.1-0.9,2-2,2H11c-1.1,0-2-0.9-2-2V44.9C9,44.3,9.2,43.8,9.6,43.4z"/>
</g>
</svg>
