<?xml version="1.0" encoding="utf-8"?>
<!-- Generator: Adobe Illustrator 23.0.1, SVG Export Plug-In . SVG Version: 6.00 Build 0)  -->
<svg version="1.1" id="图层_1" xmlns="http://www.w3.org/2000/svg" xmlns:xlink="http://www.w3.org/1999/xlink" x="0px" y="0px"
	 viewBox="0 0 66 66" style="enable-background:new 0 0 66 66;" xml:space="preserve">
<style type="text/css">
	.st0{opacity:1.000000e-02;fill:none;stroke:#FFFFFF;stroke-width:0.1;enable-background:new    ;}
	.st1{fill:#595959;}
</style>
<title>图标/经典/距离/线性</title>
<desc>Created with Sketch.</desc>
<g>
	<rect id="矩形" x="0.1" y="0.1" class="st0" width="65.9" height="65.9"/>
	<path class="st1" d="M8,25.2L55.9,7.5c1-0.4,2.2,0.1,2.6,1.2c0.2,0.4,0.2,0.9,0,1.4L40.8,58c-0.4,1-1.5,1.6-2.6,1.2
		c-0.5-0.2-1-0.6-1.2-1.2l-7.8-20.2c-0.2-0.5-0.6-0.9-1.1-1.1L8,28.9c-1-0.4-1.5-1.6-1.1-2.6C7,25.8,7.4,25.4,8,25.2z M14.4,27.1
		l15.3,5.9c1.6,0.6,2.8,1.9,3.4,3.4l5.9,15.3l14.3-38.9L14.4,27.1z"/>
</g>
</svg>
