<?xml version="1.0" encoding="utf-8"?>
<!-- Generator: Adobe Illustrator 23.0.1, SVG Export Plug-In . SVG Version: 6.00 Build 0)  -->
<svg version="1.1" id="图层_1" xmlns="http://www.w3.org/2000/svg" xmlns:xlink="http://www.w3.org/1999/xlink" x="0px" y="0px"
	 viewBox="0 0 66 66" style="enable-background:new 0 0 66 66;" xml:space="preserve">
<style type="text/css">
	.st0{opacity:1.000000e-02;fill:none;stroke:#FFFFFF;stroke-width:0.1;enable-background:new    ;}
	.st1{fill:#595959;}
</style>
<title>图标/夏令营/钱币/线性</title>
<desc>Created with Sketch.</desc>
<g>
	<rect id="矩形" x="0.1" y="0.1" class="st0" width="65.9" height="65.9"/>
	<path id="形状" class="st1" d="M35,31h7c1.1,0,2,0.9,2,2c0,1.1-0.9,2-2,2h-7v2h7c1.1,0,2,0.9,2,2s-0.9,2-2,2h-7v6
		c0,1.1-0.9,2-2,2c-1.1,0-2-0.9-2-2v-6h-7c-1.1,0-2-0.9-2-2s0.9-2,2-2h7v-2h-7c-1.1,0-2-0.9-2-2c0-1.1,0.9-2,2-2h7v-0.2
		c0,0-0.1-0.1-0.1-0.1l-8.5-8.5c-0.8-0.8-0.8-2,0-2.8c0.8-0.8,2-0.8,2.8,0l7.6,7.6c0.1,0,0.1,0,0.2,0c0.1,0,0.2,0,0.3,0l7.6-7.6
		c0.8-0.8,2-0.8,2.8,0c0.8,0.8,0.8,2,0,2.8l-8.5,8.5C35.2,30.8,35.1,30.9,35,31L35,31z M33,62C17,62,4,49,4,33S17,4,33,4
		s29,13,29,29S49,62,33,62z M33,58c13.8,0,25-11.2,25-25S46.8,8,33,8S8,19.2,8,33S19.2,58,33,58z"/>
</g>
</svg>
