<?xml version="1.0" encoding="utf-8"?>
<!-- Generator: Adobe Illustrator 23.0.1, SVG Export Plug-In . SVG Version: 6.00 Build 0)  -->
<svg version="1.1" id="图层_1" xmlns="http://www.w3.org/2000/svg" xmlns:xlink="http://www.w3.org/1999/xlink" x="0px" y="0px"
	 viewBox="0 0 66 66" style="enable-background:new 0 0 66 66;" xml:space="preserve">
<style type="text/css">
	.st0{opacity:1.000000e-02;fill:none;stroke:#FFFFFF;stroke-width:0.1;enable-background:new    ;}
	.st1{fill:#595959;}
</style>
<title>图标/APP/菜单栏/首页</title>
<desc>Created with Sketch.</desc>
<g>
	<rect id="矩形" x="0.1" y="0.1" class="st0" width="65.9" height="65.9"/>
	<path id="形状" class="st1" d="M7.7,28.4l24-20.3c0.7-0.6,1.8-0.6,2.6,0l24,20.3c0.4,0.4,0.7,0.9,0.7,1.5V57c0,1.1-0.9,2-2,2H9
		c-1.1,0-2-0.9-2-2V29.9C7,29.3,7.3,28.8,7.7,28.4z M11,30.9V55h44V30.9L33,12.2L11,30.9z M23,37h20c1.1,0,2,0.9,2,2s-0.9,2-2,2H23
		c-1.1,0-2-0.9-2-2S21.9,37,23,37z"/>
</g>
</svg>
