<?xml version="1.0" encoding="utf-8"?>
<!-- Generator: Adobe Illustrator 23.0.1, SVG Export Plug-In . SVG Version: 6.00 Build 0)  -->
<svg version="1.1" id="图层_1" xmlns="http://www.w3.org/2000/svg" xmlns:xlink="http://www.w3.org/1999/xlink" x="0px" y="0px"
	 viewBox="0 0 66 66" style="enable-background:new 0 0 66 66;" xml:space="preserve">
<style type="text/css">
	.st0{opacity:1.000000e-02;fill:none;stroke:#FFFFFF;stroke-width:0.1;enable-background:new    ;}
	.st1{fill:#595959;}
</style>
<title>图标/基础/对号/方形/块状</title>
<desc>Created with Sketch.</desc>
<g>
	<rect id="矩形" x="0.1" y="0.1" class="st0" width="65.9" height="65.9"/>
	<path id="Shape" class="st1" d="M11,7h44c2.2,0,4,1.8,4,4v44c0,2.2-1.8,4-4,4H11c-2.2,0-4-1.8-4-4V11C7,8.8,8.8,7,11,7z M29.7,39.8
		l-6.4-6.4c-0.8-0.8-2-0.8-2.8,0c-0.8,0.8-0.8,2,0,2.8l7.8,7.8c0.8,0.8,2,0.8,2.8,0l18.4-18.4c0.8-0.8,0.8-2,0-2.8
		c-0.8-0.8-2-0.8-2.8,0L29.7,39.8z"/>
</g>
</svg>
