<?xml version="1.0" encoding="utf-8"?>
<!-- Generator: Adobe Illustrator 23.0.1, SVG Export Plug-In . SVG Version: 6.00 Build 0)  -->
<svg version="1.1" id="图层_1" xmlns="http://www.w3.org/2000/svg" xmlns:xlink="http://www.w3.org/1999/xlink" x="0px" y="0px"
	 viewBox="0 0 66 66" style="enable-background:new 0 0 66 66;" xml:space="preserve">
<style type="text/css">
	.st0{fill:#595959;}
</style>
<title>图标/管家/复制/线性</title>
<desc>Created with Sketch.</desc>
<g>
	<path id="形状" class="st0" d="M11,19h32c1.1,0,2,0.9,2,2v36c0,1.1-0.9,2-2,2H11c-1.1,0-2-0.9-2-2V21C9,19.9,9.9,19,11,19z
		 M13,23v32h28V23H13z M56.4,7.6C56.8,7.9,57,8.4,57,9v36c0,1.1-0.9,2-2,2s-2-0.9-2-2V11H23c-1.1,0-2-0.9-2-2s0.9-2,2-2h32
		C55.6,7,56.1,7.2,56.4,7.6z"/>
</g>
</svg>
