<?xml version="1.0" encoding="utf-8"?>
<!-- Generator: Adobe Illustrator 23.0.1, SVG Export Plug-In . SVG Version: 6.00 Build 0)  -->
<svg version="1.1" id="图层_1" xmlns="http://www.w3.org/2000/svg" xmlns:xlink="http://www.w3.org/1999/xlink" x="0px" y="0px"
	 viewBox="0 0 16 16" style="enable-background:new 0 0 16 16;" xml:space="preserve">
<style type="text/css">
	.st0{opacity:1.000000e-02;fill:none;stroke:#FFFFFF;stroke-width:0.1;enable-background:new    ;}
	.st1{fill:#595959;}
</style>
<title>标签/角标/异形/精</title>
<desc>Created with Sketch.</desc>
<g>
	<rect id="矩形" x="0.1" y="0.1" class="st0" width="15.9" height="15.9"/>
	<path id="形状" class="st1" d="M13.2,11.4l-0.5,0.3l1.5,2.5l-2.2-0.3L11.3,16l-1.6-2.6l-0.3,0.2c-0.9,0.5-2,0.5-2.8,0l-0.3-0.2
		L4.8,16L4,13.9l-2.2,0.4l1.5-2.6l-0.5-0.3C1.9,10.9,1.3,10,1.3,9V5c0-1,0.5-1.9,1.4-2.4l3.7-2.1c1-0.5,2.1-0.5,3.1,0l3.7,2.1
		C14.1,3,14.7,3.9,14.7,5v4C14.7,10,14.1,10.9,13.2,11.4z M4.9,14.1L4.9,14.1L5.6,13L4,12.1l-0.6,1.1l0.5-0.1L4.5,13l0.2,0.6
		L4.9,14.1z M12.2,13l0.5,0.1l-0.7-1.1l-1.6,1l0.7,1.1l0.2-0.5l0.2-0.6L12.2,13L12.2,13z M8,13.2L8,13.2c0.4,0,0.7-0.1,1-0.2
		l3.8-2.2c0.6-0.4,1-1,1-1.7V5c0-0.7-0.4-1.4-1-1.7L9.1,1.1c-0.7-0.4-1.6-0.4-2.3,0L3.2,3.2c-0.6,0.4-1,1-1,1.7v4
		c0,0.7,0.4,1.4,1,1.7L6,12.4l0.7,0.4L7,12.9C7.3,13.1,7.6,13.2,8,13.2z M4.4,6.2h1.1V3.5h0.7v2.8h0.9v0.7H6.2v0.2
		c0.4,0.3,0.7,0.8,1.1,1.2L6.9,9C6.7,8.6,6.4,8.2,6.2,7.8v3H5.5V8C5.3,8.6,4.9,9.2,4.6,9.7L4.2,8.9c0.5-0.6,1-1.3,1.2-2h-1V6.2z
		 M7.3,4.1c0,0.6-0.2,1.2-0.4,1.8L6.4,5.7C6.6,5.1,6.7,4.6,6.7,4L7.3,4.1z M5.3,5.8L4.8,5.9C4.7,5.3,4.5,4.8,4.4,4.3L5,4.1
		C5.1,4.6,5.2,5.2,5.3,5.8L5.3,5.8z M9.2,3.4h0.7v0.5h1.6v0.6H9.9v0.4h1.4v0.6H9.9v0.4h1.8v0.6H7.3V5.9h1.8V5.5H7.7V4.9h1.4V4.5H7.5
		V3.9h1.7L9.2,3.4z M8.4,8.6V9h2.2V8.6H8.4z M10.6,8V7.5H8.4V8H10.6z M8.4,9.6v1.2H7.7V6.9h3.6V10c0,0.2-0.1,0.4-0.2,0.5
		c-0.1,0.1-0.3,0.2-0.6,0.2H10l-0.2-0.7l0.5,0c0.2,0,0.2-0.1,0.2-0.3V9.6L8.4,9.6z"/>
</g>
</svg>
