<?xml version="1.0" encoding="utf-8"?>
<!-- Generator: Adobe Illustrator 23.0.1, SVG Export Plug-In . SVG Version: 6.00 Build 0)  -->
<svg version="1.1" id="图层_1" xmlns="http://www.w3.org/2000/svg" xmlns:xlink="http://www.w3.org/1999/xlink" x="0px" y="0px"
	 viewBox="0 0 66 66" style="enable-background:new 0 0 66 66;" xml:space="preserve">
<style type="text/css">
	.st0{opacity:1.000000e-02;fill:none;stroke:#FFFFFF;stroke-width:0.1;enable-background:new    ;}
	.st1{fill:#595959;}
</style>
<title>图标/机构/校区/线性</title>
<desc>Created with Sketch.</desc>
<g>
	<rect id="矩形" x="0.1" y="0.1" class="st0" width="65.9" height="65.9"/>
	<path id="形状" class="st1" d="M38.5,52.4l-0.5-1.9c-0.3-1.1,0.4-2.2,1.5-2.4c1.1-0.3,2.2,0.4,2.4,1.5l0.7,2.9l11.8,2l-4.2-8.5
		c-0.5-1-0.1-2.2,0.9-2.7c1-0.5,2.2-0.1,2.7,0.9l6,12c0.7,1.5-0.5,3.1-2.1,2.9l-17.5-2.9l-13.5,4.8c-0.4,0.1-0.8,0.2-1.2,0l-18-5
		c-1.3-0.4-1.9-1.8-1.2-2.9l7-12c0.6-1,1.8-1.3,2.7-0.7s1.3,1.8,0.7,2.7L11,52.8l14.9,4.1L38.5,52.4L38.5,52.4z M33,30
		c-4.4,0-8-3.6-8-8s3.6-8,8-8s8,3.6,8,8S37.4,30,33,30z M33,26c2.2,0,4-1.8,4-4s-1.8-4-4-4s-4,1.8-4,4S30.8,26,33,26z M33,47
		c-9,0-19-13.5-19-24S22.5,4,33,4s19,8.5,19,19S42,47,33,47z M33,43c6.3,0,15-11.2,15-20c0-8.3-6.7-15-15-15s-15,6.7-15,15
		C18,31.8,26.7,43,33,43z"/>
</g>
</svg>
