<?xml version="1.0" encoding="utf-8"?>
<!-- Generator: Adobe Illustrator 23.0.1, SVG Export Plug-In . SVG Version: 6.00 Build 0)  -->
<svg version="1.1" id="图层_1" xmlns="http://www.w3.org/2000/svg" xmlns:xlink="http://www.w3.org/1999/xlink" x="0px" y="0px"
	 viewBox="0 0 66 66" style="enable-background:new 0 0 66 66;" xml:space="preserve">
<style type="text/css">
	.st0{opacity:1.000000e-02;fill:none;stroke:#FFFFFF;stroke-width:0.1;enable-background:new    ;}
	.st1{fill:#595959;}
</style>
<title>图标/机构/课程/线性</title>
<desc>Created with Sketch.</desc>
<g>
	<rect id="矩形" x="0.1" y="0.1" class="st0" width="65.9" height="65.9"/>
	<path id="形状" class="st1" d="M33.8,9.3l23.8,9.8c1,0.4,1.5,1.6,1.1,2.6c-0.2,0.5-0.6,0.9-1.1,1.1l-23.8,9.8
		c-0.5,0.2-1,0.2-1.5,0L8.5,22.8c-1-0.4-1.5-1.6-1.1-2.6c0.2-0.5,0.6-0.9,1.1-1.1l23.8-9.8C32.7,9.1,33.3,9.1,33.8,9.3z M33,13.3
		L14.5,21L33,28.7L51.5,21L33,13.3z M9.8,30.7L33,40.3l23.2-9.7c1-0.4,2.2,0.1,2.6,1.1c0.4,1-0.1,2.2-1.1,2.6L33,44.7L8.2,34.3
		c-1-0.4-1.5-1.6-1.1-2.6C7.6,30.7,8.7,30.2,9.8,30.7z M33,52.3l23.2-9.7c1-0.4,2.2,0.1,2.6,1.1c0.4,1-0.1,2.2-1.1,2.6L33,56.7
		L8.2,46.3c-1-0.4-1.5-1.6-1.1-2.6c0.4-1,1.6-1.5,2.6-1.1L33,52.3z"/>
</g>
</svg>
