<?xml version="1.0" encoding="utf-8"?>
<!-- Generator: Adobe Illustrator 23.0.1, SVG Export Plug-In . SVG Version: 6.00 Build 0)  -->
<svg version="1.1" id="图层_1" xmlns="http://www.w3.org/2000/svg" xmlns:xlink="http://www.w3.org/1999/xlink" x="0px" y="0px"
	 viewBox="0 0 66 66" style="enable-background:new 0 0 66 66;" xml:space="preserve">
<style type="text/css">
	.st0{opacity:1.000000e-02;fill:none;stroke:#FFFFFF;stroke-width:0.1;enable-background:new    ;}
	.st1{fill:#595959;}
</style>
<title>图标/机构/资料/线性</title>
<desc>Created with Sketch.</desc>
<g>
	<rect id="矩形" x="0.1" y="0.1" class="st0" width="65.9" height="65.9"/>
	<path id="形状" class="st1" d="M12,35v19h42V25H41.2c-2.2,0-4.2-1.2-5.3-3.2L30.6,12H12v19h30c1.1,0,2,0.9,2,2c0,1.1-0.9,2-2,2
		H12z M10,8h21.8c0.7,0,1.4,0.4,1.8,1.1l5.9,10.9c0.3,0.6,1,1.1,1.8,1.1H56c1.1,0,2,0.9,2,2v33c0,1.1-0.9,2-2,2H10c-1.1,0-2-0.9-2-2
		V10C8,8.9,8.9,8,10,8z"/>
</g>
</svg>
