<?xml version="1.0" encoding="utf-8"?>
<!-- Generator: Adobe Illustrator 23.0.1, SVG Export Plug-In . SVG Version: 6.00 Build 0)  -->
<svg version="1.1" id="图层_1" xmlns="http://www.w3.org/2000/svg" xmlns:xlink="http://www.w3.org/1999/xlink" x="0px" y="0px"
	 viewBox="0 0 66 66" style="enable-background:new 0 0 66 66;" xml:space="preserve">
<style type="text/css">
	.st0{opacity:1.000000e-02;fill:none;stroke:#FFFFFF;stroke-width:0.1;enable-background:new    ;}
	.st1{fill:#595959;}
</style>
<title>图标/机构/资讯/线性</title>
<desc>Created with Sketch.</desc>
<g>
	<rect id="矩形" x="0.1" y="0.1" class="st0" width="65.9" height="65.9"/>
	<path id="形状" class="st1" d="M12,6h42c1.1,0,2,0.9,2,2v33.4c0,0.4-0.1,0.7-0.3,1L45.6,59c-0.4,0.6-1,1-1.7,1H12
		c-1.1,0-2-0.9-2-2V8C10,6.9,10.9,6,12,6z M14,10v46h28.8L52,40.9V10H14z M22,20h22c1.1,0,2,0.9,2,2s-0.9,2-2,2H22c-1.1,0-2-0.9-2-2
		S20.9,20,22,20z M22,31h15c1.1,0,2,0.9,2,2c0,1.1-0.9,2-2,2H22c-1.1,0-2-0.9-2-2C20,31.9,20.9,31,22,31z"/>
</g>
</svg>
