<?xml version="1.0" encoding="utf-8"?>
<!-- Generator: Adobe Illustrator 23.0.1, SVG Export Plug-In . SVG Version: 6.00 Build 0)  -->
<svg version="1.1" id="图层_1" xmlns="http://www.w3.org/2000/svg" xmlns:xlink="http://www.w3.org/1999/xlink" x="0px" y="0px"
	 viewBox="0 0 66 66" style="enable-background:new 0 0 66 66;" xml:space="preserve">
<style type="text/css">
	.st0{opacity:1.000000e-02;fill:none;stroke:#FFFFFF;stroke-width:0.1;enable-background:new    ;}
	.st1{fill:#595959;}
</style>
<title>图标/基础/i/圆形/线性</title>
<desc>Created with Sketch.</desc>
<g>
	<rect id="矩形" x="0.1" y="0.1" class="st0" width="65.9" height="65.9"/>
	<path id="Shape" class="st1" d="M33,4C17,4,4,17,4,33s13,29,29,29s29-13,29-29S49,4,33,4z M50.6,50.6c-2.3,2.3-5,4.1-7.9,5.3
		c-3.1,1.3-6.3,2-9.7,2s-6.6-0.7-9.7-2c-3-1.3-5.6-3.1-7.9-5.3c-2.3-2.3-4.1-5-5.3-7.9c-1.3-3.1-2-6.3-2-9.7s0.7-6.6,2-9.7
		c1.3-3,3.1-5.6,5.3-7.9c2.3-2.3,5-4.1,7.9-5.3c3.1-1.3,6.3-2,9.7-2s6.6,0.7,9.7,2c3,1.3,5.6,3.1,7.9,5.3c2.3,2.3,4.1,5,5.3,7.9
		c1.3,3.1,2,6.3,2,9.7s-0.7,6.6-2,9.7C54.7,45.7,52.9,48.3,50.6,50.6z M39.7,44h-4.8V24.1c0-1.1-0.9-2-2-2l0,0h-2h-3.4
		c-1.1,0-2,0.9-2,2l0,0c0,1.1,0.9,2,2,2h3.4V44H26c-1.1,0-2,0.9-2,2l0,0c0,1.1,0.9,2,2,2h4.8h4.1h4.8c1.1,0,2-0.9,2-2l0,0
		C41.7,44.9,40.8,44,39.7,44z M30.8,16.5c0,1.1,0.9,2,2,2c1.1,0,2-0.9,2-2s-0.9-2-2-2C31.7,14.5,30.8,15.4,30.8,16.5L30.8,16.5z"/>
</g>
</svg>
