<?xml version="1.0" encoding="utf-8"?>
<!-- Generator: Adobe Illustrator 23.0.1, SVG Export Plug-In . SVG Version: 6.00 Build 0)  -->
<svg version="1.1" id="图层_1" xmlns="http://www.w3.org/2000/svg" xmlns:xlink="http://www.w3.org/1999/xlink" x="0px" y="0px"
	 viewBox="0 0 66 66" style="enable-background:new 0 0 66 66;" xml:space="preserve">
<style type="text/css">
	.st0{opacity:1.000000e-02;fill:none;stroke:#FFFFFF;stroke-width:0.1;enable-background:new    ;}
	.st1{fill:#595959;}
</style>
<title>图标/机构/统计/块状</title>
<desc>Created with Sketch.</desc>
<g>
	<rect id="矩形" x="0.1" y="0.1" class="st0" width="65.9" height="65.9"/>
	<path id="形状" class="st1" d="M12.2,39.9l12.4-12.4c0.8-0.8,2-0.8,2.8,0l11.2,11.2c0.8,0.8,2,0.8,2.8,0l10.2-10.2
		c0.8-0.8,2-0.8,2.8,0c0.4,0.4,0.6,0.9,0.6,1.4V52c0,1.1-0.9,2-2,2H13c-1.1,0-2-0.9-2-2v-9.3C11,41.7,11.4,40.6,12.2,39.9L12.2,39.9
		z M46,16c-1.1,0-2-0.9-2-2s0.9-2,2-2h8c1.1,0,2,0.9,2,2v8c0,1.1-0.9,2-2,2s-2-0.9-2-2v-2.6l-9.7,9.7c-0.1,0.1-0.5,0.6-0.6,0.7
		c-0.8,0.8-2,0.8-2.8,0l-12-12c-0.4-0.4-1-0.4-1.4,0l-12,12c-0.8,0.8-2,0.8-2.8,0c-0.8-0.8-0.8-2,0-2.8l14.1-14.1
		c0.8-0.8,2-0.8,2.8,0l12,12c0.4,0.4,1,0.4,1.4,0l8.8-8.8H46z"/>
</g>
</svg>
