<?xml version="1.0" encoding="utf-8"?>
<!-- Generator: Adobe Illustrator 23.0.1, SVG Export Plug-In . SVG Version: 6.00 Build 0)  -->
<svg version="1.1" id="图层_1" xmlns="http://www.w3.org/2000/svg" xmlns:xlink="http://www.w3.org/1999/xlink" x="0px" y="0px"
	 viewBox="0 0 66 66" style="enable-background:new 0 0 66 66;" xml:space="preserve">
<style type="text/css">
	.st0{opacity:1.000000e-02;fill:none;stroke:#FFFFFF;stroke-width:0.1;enable-background:new    ;}
	.st1{fill:#595959;}
</style>
<title>图标/基础/叉号/圆形/无底</title>
<desc>Created with Sketch.</desc>
<g>
	<rect id="矩形" x="0.1" y="0.1" class="st0" width="65.9" height="65.9"/>
	<path id="路径" class="st1" d="M35.8,33l13.4,13.4c0.8,0.8,0.8,2,0,2.8s-2,0.8-2.8,0L33,35.8L19.6,49.3c-0.8,0.8-2,0.8-2.8,0
		c-0.8-0.8-0.8-2,0-2.8L30.2,33L16.7,19.6c-0.8-0.8-0.8-2,0-2.8c0.8-0.8,2-0.8,2.8,0L33,30.2l13.4-13.4c0.8-0.8,2-0.8,2.8,0
		c0.8,0.8,0.8,2,0,2.8L35.8,33z"/>
</g>
</svg>
