<?xml version="1.0" encoding="utf-8"?>
<!-- Generator: Adobe Illustrator 23.0.1, SVG Export Plug-In . SVG Version: 6.00 Build 0)  -->
<svg version="1.1" id="图层_1" xmlns="http://www.w3.org/2000/svg" xmlns:xlink="http://www.w3.org/1999/xlink" x="0px" y="0px"
	 viewBox="0 0 66 66" style="enable-background:new 0 0 66 66;" xml:space="preserve">
<style type="text/css">
	.st0{opacity:1.000000e-02;fill:none;stroke:#FFFFFF;stroke-width:0.1;enable-background:new    ;}
	.st1{fill:#595959;}
</style>
<title>图标/夏令营/优惠券/线性</title>
<desc>Created with Sketch.</desc>
<g>
	<rect id="矩形" x="0.1" y="0.1" class="st0" width="65.9" height="65.9"/>
	<path id="形状" class="st1" d="M55,36c1.1,0,2,0.9,2,2v9c0,2.2-1.8,4-4,4H13c-2.2,0-4-1.8-4-4v-9c0-1.1,0.9-2,2-2
		c1.7,0,3-1.3,3-3c0-1.7-1.3-3-3-3c-1.1,0-2-0.9-2-2v-9c0-2.2,1.8-4,4-4h40c2.2,0,4,1.8,4,4v9c0,1.1-0.9,2-2,2c-1.7,0-3,1.3-3,3
		C52,34.7,53.3,36,55,36z M48,33c0-3.2,2.1-5.8,5-6.7V19H13v7.3c2.9,0.9,5,3.5,5,6.7s-2.1,5.8-5,6.7V47h40v-7.3
		C50.1,38.8,48,36.2,48,33z M25,26c1.1,0,2,0.9,2,2v10c0,1.1-0.9,2-2,2s-2-0.9-2-2V28C23,26.9,23.9,26,25,26z"/>
</g>
</svg>
