<?xml version="1.0" encoding="utf-8"?>
<!-- Generator: Adobe Illustrator 23.0.1, SVG Export Plug-In . SVG Version: 6.00 Build 0)  -->
<svg version="1.1" id="图层_1" xmlns="http://www.w3.org/2000/svg" xmlns:xlink="http://www.w3.org/1999/xlink" x="0px" y="0px"
	 viewBox="0 0 66 66" style="enable-background:new 0 0 66 66;" xml:space="preserve">
<style type="text/css">
	.st0{opacity:1.000000e-02;fill:none;stroke:#FFFFFF;stroke-width:0.1;enable-background:new    ;}
	.st1{fill:#595959;}
</style>
<title>图标/管家/音波/线性</title>
<desc>Created with Sketch.</desc>
<g>
	<rect id="矩形" x="0.1" y="0.1" class="st0" width="65.9" height="65.9"/>
	<path id="形状" class="st1" d="M33,11c1.1,0,2,0.9,2,2v40c0,1.1-0.9,2-2,2c-1.1,0-2-0.9-2-2V13C31,11.9,31.9,11,33,11z M22,17
		c1.1,0,2,0.9,2,2v28c0,1.1-0.9,2-2,2s-2-0.9-2-2V19C20,17.9,20.9,17,22,17z M44,17c1.1,0,2,0.9,2,2v28c0,1.1-0.9,2-2,2s-2-0.9-2-2
		V19C42,17.9,42.9,17,44,17z M11,25c1.1,0,2,0.9,2,2v12c0,1.1-0.9,2-2,2s-2-0.9-2-2V27C9,25.9,9.9,25,11,25z M55,25c1.1,0,2,0.9,2,2
		v12c0,1.1-0.9,2-2,2s-2-0.9-2-2V27C53,25.9,53.9,25,55,25z"/>
</g>
</svg>
