<?xml version="1.0" encoding="utf-8"?>
<!-- Generator: Adobe Illustrator 23.0.1, SVG Export Plug-In . SVG Version: 6.00 Build 0)  -->
<svg version="1.1" id="图层_1" xmlns="http://www.w3.org/2000/svg" xmlns:xlink="http://www.w3.org/1999/xlink" x="0px" y="0px"
	 viewBox="0 0 66 66" style="enable-background:new 0 0 66 66;" xml:space="preserve">
<style type="text/css">
	.st0{opacity:1.000000e-02;fill:none;stroke:#FFFFFF;stroke-width:0.1;enable-background:new    ;}
	.st1{fill:#595959;}
</style>
<title>图标/机构/坐标/线性</title>
<desc>Created with Sketch.</desc>
<g>
	<rect id="矩形" x="0.1" y="0.1" class="st0" width="65.9" height="65.9"/>
	<path id="形状" class="st1" d="M33,55c0.3,0,0.8-0.1,1.4-0.4c0.8-0.4,1.8-0.9,2.8-1.6c2.2-1.5,4.6-3.8,6.8-6.3
		C49,41,52,34.7,52,30c0-10.5-8.5-19-19-19s-19,8.5-19,19c0,4.7,3,11,7.9,16.7c2.2,2.6,4.6,4.8,6.8,6.3c1,0.7,2,1.3,2.8,1.6
		C32.2,54.9,32.7,55,33,55z M33,59c-7,0-23-16.3-23-29S20.3,7,33,7s23,10.3,23,23S40,59,33,59z M33,36c3.9,0,7-3.1,7-7s-3.1-7-7-7
		s-7,3.1-7,7S29.1,36,33,36z M33,40c-6.1,0-11-4.9-11-11s4.9-11,11-11s11,4.9,11,11S39.1,40,33,40z"/>
</g>
</svg>
