<?xml version="1.0" encoding="utf-8"?>
<!-- Generator: Adobe Illustrator 23.0.1, SVG Export Plug-In . SVG Version: 6.00 Build 0)  -->
<svg version="1.1" id="图层_1" xmlns="http://www.w3.org/2000/svg" xmlns:xlink="http://www.w3.org/1999/xlink" x="0px" y="0px"
	 viewBox="0 0 66 66" style="enable-background:new 0 0 66 66;" xml:space="preserve">
<style type="text/css">
	.st0{opacity:1.000000e-02;fill:none;stroke:#FFFFFF;stroke-width:0.1;enable-background:new    ;}
	.st1{fill:#595959;}
</style>
<title>图标/管家/日历/线性</title>
<desc>Created with Sketch.</desc>
<g>
	<rect id="矩形" x="0.1" y="0.1" class="st0" width="65.9" height="65.9"/>
	<path id="形状" class="st1" d="M44,18v2c0,1.1-0.9,2-2,2s-2-0.9-2-2v-2H26v2c0,1.1-0.9,2-2,2s-2-0.9-2-2v-2h-6c-1.1,0-2,0.9-2,2
		v6h38v-6c0-1.1-0.9-2-2-2H44z M44,14h8c2.2,0,4,1.8,4,4v34c0,2.2-1.8,4-4,4H14c-2.2,0-4-1.8-4-4V18c0-2.2,1.8-4,4-4h8v-2
		c0-1.1,0.9-2,2-2s2,0.9,2,2v2h14v-2c0-1.1,0.9-2,2-2s2,0.9,2,2V14z M14,30v20c0,1.1,0.9,2,2,2h34c1.1,0,2-0.9,2-2V30H14z"/>
</g>
</svg>
