<?xml version="1.0" encoding="utf-8"?>
<!-- Generator: Adobe Illustrator 23.0.1, SVG Export Plug-In . SVG Version: 6.00 Build 0)  -->
<svg version="1.1" id="图层_1" xmlns="http://www.w3.org/2000/svg" xmlns:xlink="http://www.w3.org/1999/xlink" x="0px" y="0px"
	 viewBox="0 0 66 66" style="enable-background:new 0 0 66 66;" xml:space="preserve">
<style type="text/css">
	.st0{opacity:1.000000e-02;fill:none;stroke:#FFFFFF;stroke-width:0.1;enable-background:new    ;}
	.st1{fill:#595959;}
</style>
<title>图标/经典/坐标/线性</title>
<desc>Created with Sketch.</desc>
<g>
	<rect id="矩形" x="0.1" y="0.1" class="st0" width="65.9" height="65.9"/>
	<path id="形状" class="st1" d="M33,62C22,62,7,44.4,7,30S18.6,4,33,4s26,11.6,26,26S44,62,33,62z M33,58c8.8,0,22-16,22-28
		c0-12.2-9.8-22-22-22s-22,9.8-22,22C11,42,24.2,58,33,58z M33,39c-6.1,0-11-4.9-11-11s4.9-11,11-11s11,4.9,11,11S39.1,39,33,39z
		 M33,35c3.9,0,7-3.1,7-7s-3.1-7-7-7s-7,3.1-7,7S29.1,35,33,35z"/>
</g>
</svg>
