<?xml version="1.0" encoding="utf-8"?>
<!-- Generator: Adobe Illustrator 23.0.1, SVG Export Plug-In . SVG Version: 6.00 Build 0)  -->
<svg version="1.1" id="图层_1" xmlns="http://www.w3.org/2000/svg" xmlns:xlink="http://www.w3.org/1999/xlink" x="0px" y="0px"
	 viewBox="0 0 66 66" style="enable-background:new 0 0 66 66;" xml:space="preserve">
<style type="text/css">
	.st0{opacity:1.000000e-02;fill:none;stroke:#FFFFFF;stroke-width:0.1;enable-background:new    ;}
	.st1{fill:#595959;}
</style>
<title>图标/经典/修改/线性</title>
<desc>Created with Sketch.</desc>
<g>
	<rect id="矩形" x="0.1" y="0.1" class="st0" width="65.9" height="65.9"/>
	<path id="形状" class="st1" d="M39.5,17.7L14.7,42.6v2.8h2.8l24.9-24.9L39.5,17.7L39.5,17.7z M42.4,14.9l2.8,2.8l2.2-2.2
		c0.8-0.8,0.8-2,0-2.8c-0.8-0.8-2-0.8-2.8,0L42.4,14.9L42.4,14.9z M9,53h48c1.1,0,2,0.9,2,2s-0.9,2-2,2H9c-1.1,0-2-0.9-2-2
		S7.9,53,9,53z M11.2,40.4L41.8,9.8c2.3-2.3,6.1-2.3,8.5,0c2.3,2.3,2.3,6.1,0,8.5L19.7,48.8c-0.4,0.4-0.9,0.6-1.4,0.6h-5.7
		c-1.1,0-2-0.9-2-2v-5.7C10.7,41.2,10.9,40.7,11.2,40.4z"/>
</g>
</svg>
