<?xml version="1.0" encoding="utf-8"?>
<!-- Generator: Adobe Illustrator 23.0.1, SVG Export Plug-In . SVG Version: 6.00 Build 0)  -->
<svg version="1.1" id="图层_1" xmlns="http://www.w3.org/2000/svg" xmlns:xlink="http://www.w3.org/1999/xlink" x="0px" y="0px"
	 viewBox="0 0 66 66" style="enable-background:new 0 0 66 66;" xml:space="preserve">
<style type="text/css">
	.st0{opacity:1.000000e-02;fill:none;stroke:#FFFFFF;stroke-width:0.1;enable-background:new    ;}
	.st1{fill:#595959;}
</style>
<title>图标/经典/修改/线性</title>
<desc>Created with Sketch.</desc>
<g>
	<rect id="矩形" x="0.1" y="0.1" class="st0" width="65.9" height="65.9"/>
	<path id="合并形状" class="st1" d="M12,52h42c1.1,0,2,0.9,2,2s-0.9,2-2,2H12c-1.1,0-2-0.9-2-2S10.9,52,12,52z M41.1,23
		l-2.8-2.8L17.7,40.7c-0.3,0.3-0.5,0.7-0.6,1.1c-0.2,1-0.3,2-0.4,2.8c0.8-0.1,1.7-0.3,2.7-0.5c0.4-0.1,0.8-0.3,1.1-0.6L41.1,23z
		 M44,20.1l2.2-2.2c0.8-0.8,0.8-2,0-2.8c-0.8-0.8-2-0.8-2.8,0l-2.2,2.2L44,20.1z M49,20.7L23.3,46.4c-0.9,0.9-2,1.5-3.2,1.7
		c-5,0.9-7.6,1.2-7.8,1c-0.2-0.2,0.1-2.8,0.9-7.9c0.2-1.2,0.8-2.4,1.7-3.3l25.6-25.6c2.3-2.3,6.1-2.3,8.5,0
		C51.4,14.6,51.4,18.4,49,20.7z"/>
</g>
</svg>
