<?xml version="1.0" encoding="utf-8"?>
<!-- Generator: Adobe Illustrator 23.0.1, SVG Export Plug-In . SVG Version: 6.00 Build 0)  -->
<svg version="1.1" id="图层_1" xmlns="http://www.w3.org/2000/svg" xmlns:xlink="http://www.w3.org/1999/xlink" x="0px" y="0px"
	 viewBox="0 0 66 66" style="enable-background:new 0 0 66 66;" xml:space="preserve">
<style type="text/css">
	.st0{opacity:1.000000e-02;fill:none;stroke:#FFFFFF;stroke-width:0.1;enable-background:new    ;}
	.st1{fill:#595959;}
</style>
<title>图标/机构/坐标/块状</title>
<desc>Created with Sketch.</desc>
<g>
	<rect id="矩形" x="0.1" y="0.1" class="st0" width="65.9" height="65.9"/>
	<path id="形状" class="st1" d="M33,59c-7,0-23-16.3-23-29S20.3,7,33,7s23,10.3,23,23S40,59,33,59z M33,40c6.1,0,11-4.9,11-11
		s-4.9-11-11-11s-11,4.9-11,11S26.9,40,33,40z M33,36c-3.9,0-7-3.1-7-7s3.1-7,7-7s7,3.1,7,7S36.9,36,33,36z"/>
</g>
</svg>
