<?xml version="1.0" encoding="utf-8"?>
<!-- Generator: Adobe Illustrator 23.0.1, SVG Export Plug-In . SVG Version: 6.00 Build 0)  -->
<svg version="1.1" id="图层_1" xmlns="http://www.w3.org/2000/svg" xmlns:xlink="http://www.w3.org/1999/xlink" x="0px" y="0px"
	 viewBox="0 0 66 66" style="enable-background:new 0 0 66 66;" xml:space="preserve">
<style type="text/css">
	.st0{opacity:1.000000e-02;fill:none;stroke:#FFFFFF;stroke-width:0.1;enable-background:new    ;}
	.st1{fill:#595959;}
</style>
<title>图标/机构/统计/线性</title>
<desc>Created with Sketch.</desc>
<g>
	<rect id="矩形" x="0.1" y="0.1" class="st0" width="65.9" height="65.9"/>
	<path id="形状" class="st1" d="M15,42c1.1,0,2,0.9,2,2v8c0,1.1-0.9,2-2,2s-2-0.9-2-2v-8C13,42.9,13.9,42,15,42z M27,30
		c1.1,0,2,0.9,2,2v20c0,1.1-0.9,2-2,2s-2-0.9-2-2V32C25,30.9,25.9,30,27,30z M39,42c1.1,0,2,0.9,2,2v8c0,1.1-0.9,2-2,2s-2-0.9-2-2
		v-8C37,42.9,37.9,42,39,42z M51,30c1.1,0,2,0.9,2,2v20c0,1.1-0.9,2-2,2s-2-0.9-2-2V32C49,30.9,49.9,30,51,30z M46,16
		c-1.1,0-2-0.9-2-2s0.9-2,2-2h8c1.1,0,2,0.9,2,2v8c0,1.1-0.9,2-2,2s-2-0.9-2-2v-2.6l-9.7,9.7c-0.1,0.1-0.5,0.6-0.6,0.7
		c-0.8,0.8-2,0.8-2.8,0L26.1,17.1L13.4,29.8c-0.8,0.8-2,0.8-2.8,0c-0.8-0.8-0.8-2,0-2.8l14.1-14.1c0.8-0.8,2-0.8,2.8,0l12.7,12.7
		l9.5-9.5H46z"/>
</g>
</svg>
