<?xml version="1.0" encoding="utf-8"?>
<!-- Generator: Adobe Illustrator 23.0.1, SVG Export Plug-In . SVG Version: 6.00 Build 0)  -->
<svg version="1.1" id="图层_1" xmlns="http://www.w3.org/2000/svg" xmlns:xlink="http://www.w3.org/1999/xlink" x="0px" y="0px"
	 viewBox="0 0 66 66" style="enable-background:new 0 0 66 66;" xml:space="preserve">
<style type="text/css">
	.st0{opacity:1.000000e-02;fill:none;stroke:#FFFFFF;stroke-width:0.1;enable-background:new    ;}
	.st1{fill:#595959;}
</style>
<title>图标/经典/坐标/块状</title>
<desc>Created with Sketch.</desc>
<g>
	<rect id="矩形" x="0.1" y="0.1" class="st0" width="65.9" height="65.9"/>
	<path id="形状" class="st1" d="M33,62C22,62,7,44.4,7,30S18.6,4,33,4s26,11.6,26,26S44,62,33,62z M33,39c6.1,0,11-4.9,11-11
		s-4.9-11-11-11s-11,4.9-11,11S26.9,39,33,39z M33,34c-3.3,0-6-2.7-6-6s2.7-6,6-6s6,2.7,6,6S36.3,34,33,34z"/>
</g>
</svg>
