<?xml version="1.0" encoding="utf-8"?>
<!-- Generator: Adobe Illustrator 23.0.1, SVG Export Plug-In . SVG Version: 6.00 Build 0)  -->
<svg version="1.1" id="图层_1" xmlns="http://www.w3.org/2000/svg" xmlns:xlink="http://www.w3.org/1999/xlink" x="0px" y="0px"
	 viewBox="0 0 66 66" style="enable-background:new 0 0 66 66;" xml:space="preserve">
<style type="text/css">
	.st0{opacity:1.000000e-02;fill:none;stroke:#FFFFFF;stroke-width:0.1;enable-background:new    ;}
	.st1{fill:#595959;}
</style>
<title>图标/经典/定位/线性</title>
<desc>Created with Sketch.</desc>
<g>
	<rect id="矩形" x="0.1" y="0.1" class="st0" width="65.9" height="65.9"/>
	<path id="形状" class="st1" d="M59.9,31H61c1.1,0,2,0.9,2,2c0,1.1-0.9,2-2,2h-1.1C59,48.3,48.3,59,35,59.9V61c0,1.1-0.9,2-2,2
		c-1.1,0-2-0.9-2-2v-1.1C17.7,59,7,48.3,6.1,35H5c-1.1,0-2-0.9-2-2c0-1.1,0.9-2,2-2h1.1C7,17.7,17.7,7,31,6.1V5c0-1.1,0.9-2,2-2
		c1.1,0,2,0.9,2,2v1.1C48.3,7,59,17.7,59.9,31L59.9,31z M55.9,35H51c-1.1,0-2-0.9-2-2c0-1.1,0.9-2,2-2h4.9C55,19.9,46.1,11,35,10.1
		V15c0,1.1-0.9,2-2,2c-1.1,0-2-0.9-2-2v-4.9C19.9,11,11,19.9,10.1,31H15c1.1,0,2,0.9,2,2c0,1.1-0.9,2-2,2h-4.9
		c1,11.1,9.8,20,20.9,20.9V51c0-1.1,0.9-2,2-2c1.1,0,2,0.9,2,2v4.9C46.1,55,55,46.1,55.9,35L55.9,35z M33,37c-2.2,0-4-1.8-4-4
		s1.8-4,4-4s4,1.8,4,4S35.2,37,33,37z"/>
</g>
</svg>
