<?xml version="1.0" encoding="utf-8"?>
<!-- Generator: Adobe Illustrator 23.0.1, SVG Export Plug-In . SVG Version: 6.00 Build 0)  -->
<svg version="1.1" id="图层_1" xmlns="http://www.w3.org/2000/svg" xmlns:xlink="http://www.w3.org/1999/xlink" x="0px" y="0px"
	 viewBox="0 0 66 66" style="enable-background:new 0 0 66 66;" xml:space="preserve">
<style type="text/css">
	.st0{opacity:1.000000e-02;fill:none;stroke:#FFFFFF;stroke-width:0.1;enable-background:new    ;}
	.st1{fill:#595959;}
</style>
<title>图标/机构/删除/线性</title>
<desc>Created with Sketch.</desc>
<g>
	<rect id="矩形" x="0.1" y="0.1" class="st0" width="65.9" height="65.9"/>
	<path id="形状" class="st1" d="M20,52h26c1.1,0,2-0.9,2-2V20H18v30C18,51.1,18.9,52,20,52z M48,56H18c-2.2,0-4-1.8-4-4V20h-2
		c-1.1,0-2-0.9-2-2s0.9-2,2-2h10v-4c0-1.1,0.9-2,2-2h18c1.1,0,2,0.9,2,2v4h10c1.1,0,2,0.9,2,2s-0.9,2-2,2h-2v32
		C52,54.2,50.2,56,48,56z M40,16v-1.6c0-0.2-0.2-0.4-0.4-0.4H26.4c-0.2,0-0.4,0.2-0.4,0.4V16H40z M27,27c1.1,0,2,0.9,2,2v14
		c0,1.1-0.9,2-2,2s-2-0.9-2-2V29C25,27.9,25.9,27,27,27z M39,27c1.1,0,2,0.9,2,2v14c0,1.1-0.9,2-2,2s-2-0.9-2-2V29
		C37,27.9,37.9,27,39,27z"/>
</g>
</svg>
