<?xml version="1.0" encoding="utf-8"?>
<!-- Generator: Adobe Illustrator 23.0.1, SVG Export Plug-In . SVG Version: 6.00 Build 0)  -->
<svg version="1.1" id="图层_1" xmlns="http://www.w3.org/2000/svg" xmlns:xlink="http://www.w3.org/1999/xlink" x="0px" y="0px"
	 viewBox="0 0 66 66" style="enable-background:new 0 0 66 66;" xml:space="preserve">
<style type="text/css">
	.st0{opacity:1.000000e-02;fill:none;stroke:#FFFFFF;stroke-width:0.1;enable-background:new    ;}
	.st1{fill:#595959;}
</style>
<title>图标/管家/暂停/线性</title>
<desc>Created with Sketch.</desc>
<g>
	<rect id="矩形" x="0.1" y="0.1" class="st0" width="65.9" height="65.9"/>
	<path id="形状" class="st1" d="M33,55c12.2,0,22-9.8,22-22s-9.8-22-22-22s-22,9.8-22,22S20.8,55,33,55z M33,59
		C18.6,59,7,47.4,7,33S18.6,7,33,7s26,11.6,26,26S47.4,59,33,59z M27,22c1.1,0,2,0.9,2,2v18c0,1.1-0.9,2-2,2s-2-0.9-2-2V24
		C25,22.9,25.9,22,27,22z M39,22c1.1,0,2,0.9,2,2v18c0,1.1-0.9,2-2,2s-2-0.9-2-2V24C37,22.9,37.9,22,39,22z"/>
</g>
</svg>
