<?xml version="1.0" encoding="utf-8"?>
<!-- Generator: Adobe Illustrator 23.0.1, SVG Export Plug-In . SVG Version: 6.00 Build 0)  -->
<svg version="1.1" id="图层_1" xmlns="http://www.w3.org/2000/svg" xmlns:xlink="http://www.w3.org/1999/xlink" x="0px" y="0px"
	 viewBox="0 0 66 66" style="enable-background:new 0 0 66 66;" xml:space="preserve">
<style type="text/css">
	.st0{opacity:1.000000e-02;fill:none;stroke:#FFFFFF;stroke-width:0.1;enable-background:new    ;}
	.st1{fill:#595959;}
</style>
<title>图标/基础/i/圆形/无底</title>
<desc>Created with Sketch.</desc>
<g>
	<rect id="矩形" x="0.1" y="0.1" class="st0" width="65.9" height="65.9"/>
	<path id="Shape" class="st1" d="M39.9,47.8h-4.9V24c0-1.2-0.9-2.1-2.1-2.1l0,0h-2.1h-3.4c-1.1,0-2.1,0.9-2.1,2.1l0,0
		c0,1.2,0.9,2.1,2.1,2.1h3.4v21.6h-4.9c-1.1,0-2.1,0.9-2.1,2.1l0,0c0,1.2,0.9,2.1,2.1,2.1h4.9h4.1h4.9c1.1,0,2.1-0.9,2.1-2.1l0,0
		C42,48.7,41.1,47.8,39.9,47.8z M30.9,16.1c0,1.2,0.9,2.1,2.1,2.1c1.1,0,2.1-0.9,2.1-2.1c0-1.2-0.9-2.1-2.1-2.1
		C31.9,14,30.9,14.9,30.9,16.1z"/>
</g>
</svg>
