<?xml version="1.0" encoding="utf-8"?>
<!-- Generator: Adobe Illustrator 23.0.1, SVG Export Plug-In . SVG Version: 6.00 Build 0)  -->
<svg version="1.1" id="图层_1" xmlns="http://www.w3.org/2000/svg" xmlns:xlink="http://www.w3.org/1999/xlink" x="0px" y="0px"
	 viewBox="0 0 66 66" style="enable-background:new 0 0 66 66;" xml:space="preserve">
<style type="text/css">
	.st0{opacity:1.000000e-02;fill:none;stroke:#FFFFFF;stroke-width:0.1;enable-background:new    ;}
	.st1{fill:#595959;}
</style>
<title>图标/夏令营/夏令营/线性</title>
<desc>Created with Sketch.</desc>
<g>
	<rect id="矩形" x="0.1" y="0.1" class="st0" width="65.9" height="65.9"/>
	<path id="形状" class="st1" d="M59,55h1c1.1,0,2,0.9,2,2s-0.9,2-2,2H6c-1.1,0-2-0.9-2-2s0.9-2,2-2h1c0-0.1,0-0.1,0-0.2l3-28
		c0.1-0.6,0.4-1.1,0.8-1.4l18.7-13.5l-1.7-1.3c-0.9-0.6-1.1-1.9-0.5-2.8c0.6-0.9,1.9-1.1,2.8-0.5l2.8,2l2.8-2
		c0.9-0.6,2.1-0.4,2.8,0.5c0.6,0.9,0.4,2.1-0.5,2.8l-1.7,1.3l18.7,13.5c0.5,0.3,0.8,0.8,0.8,1.4l3,28C59,54.9,59,54.9,59,55L59,55z
		 M55,55l-2.9-26.9L33,14.3L13.9,28.1L11,55H55z M33,37.7l-5.2,12.1c-0.4,1-1.6,1.5-2.6,1.1c-1-0.4-1.5-1.6-1.1-2.6l7-16.4
		c0.7-1.6,3-1.6,3.7,0l7,16.4c0.4,1,0,2.2-1.1,2.6c-1,0.4-2.2,0-2.6-1.1L33,37.7z"/>
</g>
</svg>
