<?xml version="1.0" encoding="utf-8"?>
<!-- Generator: Adobe Illustrator 23.0.1, SVG Export Plug-In . SVG Version: 6.00 Build 0)  -->
<svg version="1.1" id="图层_1" xmlns="http://www.w3.org/2000/svg" xmlns:xlink="http://www.w3.org/1999/xlink" x="0px" y="0px"
	 viewBox="0 0 16 16" style="enable-background:new 0 0 16 16;" xml:space="preserve">
<style type="text/css">
	.st0{opacity:1.000000e-02;fill:none;stroke:#FFFFFF;stroke-width:0.1;enable-background:new    ;}
	.st1{fill:#595959;}
</style>
<title>标签/角标/异形/火爆</title>
<desc>Created with Sketch.</desc>
<g>
	<rect id="矩形" x="0.1" y="0.1" class="st0" width="15.9" height="15.9"/>
	<path id="路径" class="st1" d="M13.6,7.1L13.6,7.1c-0.4-1.1-0.3-1.8-0.3-1.8c0.1-0.3,0-0.6-0.2-0.8s-0.5-0.3-0.8-0.2
		c-0.1,0.1-1.2,0.4-1.7,1.5c0,0,0,0,0,0.1c-0.4-1.9,0.1-3.7,0.2-3.9c0.1-0.3,0.1-0.5-0.1-0.7C10.6,1.2,10.3,1,10,1.1
		c-0.1,0-3.1,0.4-4.4,3.8C5.4,5.6,5.3,6.5,5.2,7.1l0,0C5.1,6.5,5,5.8,5,5.4C4.9,5.1,4.7,4.9,4.4,4.8c-0.3-0.1-0.6,0-0.8,0.3
		C3.5,5.1,2.2,6.8,2,8.4c-0.3,1.5,0.1,2.9,1,4.1c1,1.3,2.4,2.1,4.2,2.4C7.5,15,7.9,15,8.3,15c3,0,5.4-1.9,5.8-4.7
		C14.2,9,14.1,8.3,13.6,7.1z"/>
</g>
</svg>
