<?xml version="1.0" encoding="utf-8"?>
<!-- Generator: Adobe Illustrator 23.0.1, SVG Export Plug-In . SVG Version: 6.00 Build 0)  -->
<svg version="1.1" id="图层_1" xmlns="http://www.w3.org/2000/svg" xmlns:xlink="http://www.w3.org/1999/xlink" x="0px" y="0px"
	 viewBox="0 0 67 20" style="enable-background:new 0 0 67 20;" xml:space="preserve">
<style type="text/css">
	.st0{fill:#FFFFFF;}
	.st1{fill:#FE1940;}
</style>
<title>LOGO</title>
<desc>Created with Sketch.</desc>
<g id="首页">
	<g id="头部" transform="translate(-15.000000, -79.000000)">
		<g transform="translate(15.000000, 76.000000)">
			<g id="logo" transform="translate(0.000000, 3.000000)">
				<g id="LOGO">
					<path id="形状" class="st0" d="M16,10.9c0-0.1,0.1-0.3,0.2-0.4c0.4-1.1,0.8-2.2,1.2-3.2c0-0.1,0.1-0.2,0.1-0.3
						c0.1-0.5,0.5-0.8,1-0.7c0.4,0,0.9,0,1.3,0c0.1,0,0.3,0,0.4,0.1c0.1,0,0.2,0.1,0.2,0.2s0,0.2,0,0.3c0,0.2-0.1,0.3-0.2,0.5
						l-2.3,6.1c-0.1,0.2-0.1,0.3-0.2,0.5c0,0.1,0,0.2,0,0.3c0.5,1,0.9,2.1,1.4,3.1c0.2,0.4,0.6,0.7,1,0.7c0.9,0.1,1.7,0.1,2.6,0.1
						c0.4,0,0.8,0,1.2-0.1c0.1,0,0.2,0,0.3-0.1c0.2,0,0.3-0.2,0.3-0.4c0-0.1,0-0.1,0-0.2c0-2.6,0-5.1,0-7.7c0-0.1,0-0.2,0-0.3
						c0-0.1,0-0.2,0.1-0.2c0.1-0.1,0.2-0.1,0.3-0.1c0.1,0,0.1,0,0.2,0h17.9c0.1,0,0.2,0,0.3,0c0.1,0,0.2,0,0.2,0.1
						c0.1,0.1,0.1,0.1,0.1,0.2c0,2.7,0,5.4,0,8c0,0.1,0,0.2,0,0.3h11.1c0.2,0,0.5,0,0.7-0.1c0.2-0.1,0.3-0.3,0.3-0.5
						c0-0.5,0-1.1,0-1.6c0-0.2,0-0.5,0-0.7c0-0.3-0.1-0.5-0.5-0.5c-1.4,0-2.8,0-4.3,0c-1.2,0-1.6,0-2.8,0c-1,0-1.4-0.2-1.4-0.9
						s0-0.2,0-0.7c0-0.5,0.7-0.5,0.9-0.5c1.4,0,2.8,0,4.2,0h2.8c0.1,0,0.2,0,0.3,0c0.3,0,0.6-0.3,0.6-0.6c0-0.1,0-0.1,0-0.2
						c0-0.3,0-0.6,0-0.9c0-0.3-0.2-0.6-0.5-0.7c-0.2,0-0.3-0.1-0.5-0.1c-2.1,0-4.2,0-6.2,0c-1.3,0-1.6,0-1.6-0.7c0-0.4,0-0.5,0-0.9
						c0-0.3,0.3-0.4,0.5-0.4c0.1,0,0.3,0,0.4,0h18.7c0.1,0,0.3,0,0.4,0.1c0.1,0.1,0.2,0.2,0.2,0.4c0,0.5,0,0.4,0,0.9
						c0,0.4-0.2,0.6-0.8,0.6c-1.6,0-3.2,0-4.9,0c-0.7,0-1.5,0-2.2,0c-0.1,0-0.2,0-0.3,0.1c-0.1,0.1-0.1,0.1-0.1,0.2
						c0,0.1,0,0.2,0,0.2c0,0.4,0,0.8,0,1.2c0,0.2,0,0.4,0.1,0.6c0.1,0.1,0.3,0.1,0.4,0.1c2.4,0,4.7,0,7.1,0c0.1,0,0.3,0,0.4,0.1
						c0.1,0,0.2,0.2,0.2,0.3c0,0.4,0,0.7,0,1.1c0,0.4-0.2,0.6-0.6,0.6c-0.3,0-0.6,0-1,0c-0.1,0-0.2,0-0.2,0c0.5,0.4,0.8,0.9,0.9,1.5
						c0.1,0.6,0,1.2-0.4,1.7c0.1,0,0.1,0,0.2,0c0.2,0,0.4,0,0.6,0c0.3,0,0.5,0.1,0.5,0.5c0,0.4,0,0.8,0,1.2c0,0.2-0.1,0.3-0.3,0.3
						c-0.1,0-0.3,0-0.4,0H32.8c-0.3,0-0.4-0.1-0.4-0.4c0-0.4,0-0.8,0-1.1c0-0.1,0-0.1,0-0.2c0-0.2,0.1-0.3,0.3-0.3h7.6
						c0.1,0,0.1,0,0.2,0c0.1,0,0.1,0,0.2-0.1c0.1-0.1,0.1-0.1,0.1-0.2c0-0.2,0-0.5,0-0.7c0-0.1,0-0.2-0.2-0.2c-0.1,0-0.1,0-0.2,0H28
						c-0.2,0-0.3,0-0.5,0c-0.1,0-0.2,0-0.3,0c-0.1,0-0.2,0.1-0.2,0.3c0,0.1,0,0.1,0,0.2c0,0.7,0,1.4,0,2.2c0,0.3-0.2,0.6-0.4,0.7
						c-0.3,0.1-0.5,0.2-0.8,0.2c-0.9,0-1.9,0-2.8,0c-0.9,0-1.8,0-2.6,0c-0.1,0-0.9,0-1,0c-0.2,0-0.4,0-0.5-0.1
						c-0.8-0.1-1.3-0.5-1.7-1.2c-0.3-0.4-0.5-0.8-0.7-1.2c0-0.1-0.1-0.1-0.1-0.2c0,0-0.1,0.1-0.1,0.1c-0.5,0.7-1.1,1.8-1.2,2
						c-0.1,0.2-0.3,0.3-0.5,0.4c-0.3,0.1-0.6,0.2-0.9,0.2c-0.6,0-1.2,0-1.8,0c-0.2,0-0.4-0.1-0.4-0.3c-0.1-0.2-0.1-0.4-0.1-0.6
						c0-0.2,0-0.5,0-0.7c0-0.3,0.2-0.5,0.5-0.6c0.1,0,0.7,0,0.8,0c0.2,0,0.4-0.1,0.6-0.3c0.1-0.1,0.2-0.3,0.2-0.4
						c0.4-1,0.8-1.7,1.2-2.7c0.1-0.1,0.1-0.3,0-0.4c-1-2-2-4.1-3-6.1c-0.1-0.1-0.1-0.2-0.1-0.3c0-0.1,0-0.2,0-0.3
						C11.4,7,11.4,7,11.5,7c0.1,0,0.1,0,0.2,0h1.5c0.1,0,0.2,0,0.2,0c0.4,0,0.8,0.2,1,0.6l1.4,3C15.8,10.7,15.9,10.8,16,10.9
						L16,10.9z M33.9,11.5h6.3c0.1,0,0.2,0,0.2,0c0.1,0,0.2-0.1,0.3-0.2c0-0.1,0-0.1,0-0.2c0-0.4-0.1-0.5-0.5-0.5
						c-4.3,0-8.5,0-12.8,0h-0.2c-0.2,0-0.3,0.1-0.3,0.3c0,0,0,0.1,0,0.1c0,0.4,0,0.5,0.5,0.5L33.9,11.5z M33.9,13.4h-6.3
						c-0.1,0-0.1,0-0.2,0c-0.2,0-0.3,0.1-0.3,0.3c0,0.1,0,0.1,0,0.2c0,0.3,0.1,0.4,0.4,0.4h12.8c0.1,0,0.1,0,0.2,0
						c0.1,0,0.1,0,0.2-0.1c0,0,0.1-0.1,0.1-0.2c0-0.1,0-0.2,0-0.2c0-0.3-0.1-0.4-0.4-0.4L33.9,13.4L33.9,13.4z M62.2,14.2L62.2,14.2
						l-3.2,0c-0.1,0-0.2,0-0.3,0.1c-0.1,0.1-0.1,0.2-0.1,0.3c0,0.8,0,1.4,0,2.2c0,0.1,0,0.2,0,0.4c0,0.1,0,0.2,0.1,0.3
						s0.2,0.1,0.3,0.1h2.4c0.1,0,0.2,0,0.3,0C61,16.2,61.2,15.2,62.2,14.2L62.2,14.2z"/>
					<path id="路径" class="st0" d="M5.1,10.2c0.1,0,0.2,0,0.3,0c1.5,0,3,0,4.5,0c0.1,0,0.3,0,0.4,0c0.1,0,0.3,0.2,0.3,0.3
						c0,0.1,0,0.2,0,0.2c0,0.4,0,0.8,0,1.2c0,0.1,0,0.2-0.1,0.3c-0.2,0.4-0.4,0.8-0.6,1.3c0,0.1-0.1,0.1-0.1,0.3c0.1,0,0.2,0,0.4,0
						c0.1,0,0.3,0,0.3,0.1c0.1,0.1,0.1,0.2,0.1,0.3c0,0.5,0,0.9,0,1.4c0,0.3-0.1,0.4-0.4,0.4H9.7c0,0-0.1,0-0.1,0c0,0.1,0,0.1,0,0.2
						c0,0.6,0,1.2,0,1.7c0,0.3,0,0.5-0.1,0.8c-0.1,0.4-0.4,0.8-0.9,0.9c-0.3,0.1-0.6,0.1-0.9,0.1c-1.9,0-3.7,0-5.6,0
						c-0.2,0-0.3,0-0.5,0c-0.2,0-0.2-0.1-0.2-0.2c0-0.4,0-0.9,0-1.3c0-0.1,0-0.1,0-0.2c0.1-0.3,0.2-0.4,0.5-0.4c1.1,0,2.3,0,3.4,0
						c0.1,0,0.3,0,0.4-0.1c0.2,0,0.3-0.2,0.3-0.4c0-0.4,0-0.7,0-1.1c-0.1,0-0.2,0-0.3,0H1c-0.1,0-0.3,0-0.4,0
						c-0.1,0-0.2-0.1-0.3-0.1c-0.1-0.1-0.1-0.2-0.1-0.3c0-0.4,0-0.8,0-1.3c0-0.1,0-0.3,0.1-0.4s0.2-0.1,0.4-0.1c1.8,0,3.5,0,5.3,0
						c0.2,0,0.3-0.1,0.4-0.2c0.2-0.3,0.3-0.6,0.5-0.9c0-0.1,0.1-0.1,0.1-0.2c-0.1,0-0.2,0-0.2,0H4.7c-0.4,0-0.7,0.1-1,0.4
						c-0.2,0.2-0.4,0.2-0.7,0.2c-0.1,0-0.2,0-0.3,0H0.9c-0.2,0-0.4-0.1-0.5-0.3c0-0.1,0-0.2,0-0.3c0-0.4,0-0.8,0-1.2
						c0-0.1,0-0.2,0.1-0.3c0.1-0.2,0.2-0.3,0.4-0.3c0.2,0,0.3,0,0.5,0c0.2,0,0.3-0.1,0.4-0.3C1.8,10.2,1.9,10,2,9.7
						c0-0.1,0-0.1,0.1-0.2c-0.1,0-0.2,0-0.3,0c-0.4,0-0.7,0-1.1,0c-0.2,0-0.3-0.1-0.3-0.3c0-0.6,0-1.3,0-1.9c0-0.2,0.1-0.3,0.3-0.3
						c0.9,0,1.8,0,2.6,0c0.1,0,0.3,0,0.4,0c0.1,0,0.1,0,0.2-0.1C4,6.7,4,6.6,4,6.5c0-0.3,0-0.7,0-1c0-0.3-0.1-0.4-0.4-0.4H1.4
						c-0.1,0-0.1,0-0.2,0C1.1,5.1,1,5.1,1,5C0.9,5,0.9,4.9,0.9,4.9c0-0.1,0-0.1,0-0.2c0-0.4,0-0.8,0-1.3c0-0.1,0-0.1,0-0.2
						c0-0.1,0-0.2,0.1-0.2C1,2.9,1.1,2.9,1.2,2.9c0.1,0,0.1,0,0.2,0c0.7,0,1.4,0,2.1,0c0.1,0,0.2,0,0.4,0C4,2.8,4.1,2.7,4.1,2.5
						c0-0.2,0-0.4,0-0.6c0-0.4,0.1-0.5,0.5-0.5c0.7,0,1.4,0,2.1,0c0.1,0,0.3,0,0.4,0.1c0.1,0.1,0.1,0.3,0.1,0.4c0,0.2,0,0.4,0,0.6
						s0,0.3,0.2,0.3c0.1,0,0.2,0,0.3,0c0.7,0,1.5,0,2.2,0c0.3,0,0.4,0.1,0.4,0.4c0,0.5,0,0.9,0,1.4c0,0.3-0.1,0.4-0.4,0.4H9l-1.5,0
						c-0.3,0-0.4,0.1-0.4,0.4c0,0.4,0,0.8,0,1.2c0,0,0,0.1,0,0.1c0.2,0.1,0.4,0.1,0.7,0.1h2.4c0.2,0,0.3,0.1,0.3,0.3
						c0,0.2,0,0.4,0,0.6c0,0.4,0,0.8,0,1.2c0,0.3-0.1,0.4-0.4,0.4c-1.5,0-3,0-4.5,0c-0.3,0-0.2,0-0.4,0.2C5.2,9.8,5.2,10,5.1,10.2z"
						/>
					<path class="st0" d="M28.4,5.7c0.1,0,0.1,0,0.2,0h10.8c0.1,0,0.2,0,0.3,0c0.2,0,0.3-0.1,0.3-0.3c0-0.1,0-0.3,0-0.4
						c0.1,0,0.1,0,0.2,0h2.7c0.3,0,0.4,0.1,0.4,0.4c0,0.6,0,1.1,0,1.7c0,0.1,0,0.3-0.1,0.4c0,0.2-0.2,0.3-0.3,0.2c0,0-0.1,0-0.1,0
						H25.8c-0.3,0-0.6,0-0.9,0c-0.1,0-0.2,0-0.3,0c-0.3-0.1-0.4-0.1-0.4-0.4c0-0.4,0-0.8,0-1.3c0-0.1,0.1-0.3,0.2-0.4
						c0.3-0.3,0.7-0.6,1-0.9c0.1,0,0.1-0.1,0.2-0.1l0-0.1c-0.1,0-0.1,0-0.2,0H24c-0.3,0-0.4-0.1-0.4-0.4c0-0.5,0-0.9,0-1.4
						c0-0.3,0.1-0.5,0.4-0.5c0.1,0,0.2,0,0.4,0h7.3c0-0.6,0.3-1.3,0.8-1.6c0.4-0.3,0.9-0.4,1.4-0.3c0.5,0,0.9,0.3,1.3,0.6
						c0.3,0.4,0.5,0.8,0.5,1.3c0.1,0,0.2,0,0.3,0h7.3c0.1,0,0.1,0,0.2,0c0.2,0,0.4,0.2,0.4,0.4c0,0.5,0,1.1,0,1.6
						c0,0.1-0.1,0.2-0.2,0.2c-0.1,0-0.1,0-0.2,0c-0.1,0-0.2,0-0.3,0c-4.4,0-8.8,0-13.2,0c-0.2,0-0.4,0.1-0.5,0.2
						c-0.3,0.3-0.7,0.6-1,0.9C28.5,5.6,28.4,5.6,28.4,5.7L28.4,5.7z"/>
					<path class="st0" d="M49.6,4.6c0,0.2,0,0.5,0,0.7c0,0.2,0,0.3,0,0.5c0,0.2-0.1,0.3-0.3,0.3h-2.4c-0.2,0-0.3-0.1-0.4-0.2
						c-0.1-0.1-0.1-0.3-0.1-0.4c0-0.8,0-1.5,0-2.3c0-0.4,0.3-0.7,0.7-0.8c0.1,0,0.3,0,0.5,0h7.2c0-0.1,0-0.1,0-0.2
						c0.1-0.9,0.8-1.6,1.7-1.7c0.6-0.1,1.2,0.1,1.6,0.5c0.3,0.3,0.6,0.7,0.6,1.1c0,0,0,0,0,0.1c0,0.3,0,0.3,0.3,0.3h7.2
						c0.1,0,0.3,0,0.4,0C66.8,2.4,67,2.6,67,2.8c0,0.1,0,0.2,0,0.4c0,0.7,0,1.4,0,2.1c0,0.1,0,0.2,0,0.2c0,0.2,0,0.3-0.2,0.4
						s-0.3,0.2-0.4,0.2c-0.2,0-0.4,0-0.7,0c-0.4,0-0.9,0-1.3,0c-0.1,0-0.2,0-0.4,0c-0.3-0.1-0.3-0.2-0.3-0.4c0-0.3,0-0.6,0-0.9
						c0-0.1,0-0.1,0-0.2L49.6,4.6z"/>
					<path class="st0" d="M13,1.4h0.4c0.6,0,1.3,0,1.9,0c0.3,0,0.4,0.1,0.4,0.4c0,0.1-0.1,0.3-0.1,0.5c0.1,0,0.1,0,0.2,0H20
						c0.1,0,0.2,0,0.4,0c0.2,0,0.3,0.2,0.3,0.4c0,0.5,0,1,0,1.4c0,0.1,0,0.2-0.1,0.3c-0.1,0.1-0.1,0.1-0.2,0.1c-0.1,0-0.2,0-0.3,0
						h-4.5c-0.1,0-0.2,0-0.3,0c-0.2,0-0.3,0.1-0.4,0.3c0,0.2-0.1,0.3-0.1,0.5c0,0.1-0.1,0.3-0.1,0.4c-0.1,0.5-0.4,0.9-1.1,0.9
						c-0.4,0-0.8,0-1.1,0h-1c-0.1,0-0.1,0-0.2,0c-0.1-0.6-0.1-1.2,0-1.8l0.4,0c0.3,0,0.5-0.2,0.6-0.5c0.3-0.9,0.5-1.8,0.8-2.7
						C12.9,1.6,12.9,1.6,13,1.4z"/>
					<ellipse id="椭圆形" class="st1" cx="63.6" cy="16.1" rx="1.4" ry="1.4"/>
				</g>
			</g>
		</g>
	</g>
</g>
</svg>
