<?xml version="1.0" encoding="utf-8"?>
<!-- Generator: Adobe Illustrator 23.0.1, SVG Export Plug-In . SVG Version: 6.00 Build 0)  -->
<svg version="1.1" id="图层_1" xmlns="http://www.w3.org/2000/svg" xmlns:xlink="http://www.w3.org/1999/xlink" x="0px" y="0px"
	 viewBox="0 0 66 66" style="enable-background:new 0 0 66 66;" xml:space="preserve">
<style type="text/css">
	.st0{opacity:1.000000e-02;fill:none;stroke:#FFFFFF;stroke-width:0.1;enable-background:new    ;}
	.st1{fill:#595959;}
</style>
<title>图标/机构/首页/线性</title>
<desc>Created with Sketch.</desc>
<g>
	<rect id="矩形" x="0.1" y="0.1" class="st0" width="65.9" height="65.9"/>
	<path id="形状" class="st1" d="M33,12.8L9.8,22.5c-1,0.4-2.2-0.1-2.6-1.1c-0.4-1,0.1-2.2,1.1-2.6L33,8.5l24.8,10.3
		c1,0.4,1.5,1.6,1.1,2.6c-0.4,1-1.6,1.5-2.6,1.1L33,12.8z M9,54h48c1.1,0,2,0.9,2,2s-0.9,2-2,2H9c-1.1,0-2-0.9-2-2S7.9,54,9,54z
		 M15,26c1.1,0,2,0.9,2,2v19c0,1.1-0.9,2-2,2s-2-0.9-2-2V28C13,26.9,13.9,26,15,26z M27,26c1.1,0,2,0.9,2,2v19c0,1.1-0.9,2-2,2
		s-2-0.9-2-2V28C25,26.9,25.9,26,27,26z M39,26c1.1,0,2,0.9,2,2v19c0,1.1-0.9,2-2,2s-2-0.9-2-2V28C37,26.9,37.9,26,39,26z M51,26
		c1.1,0,2,0.9,2,2v19c0,1.1-0.9,2-2,2s-2-0.9-2-2V28C49,26.9,49.9,26,51,26z"/>
</g>
</svg>
