<?xml version="1.0" encoding="utf-8"?>
<!-- Generator: Adobe Illustrator 23.0.1, SVG Export Plug-In . SVG Version: 6.00 Build 0)  -->
<svg version="1.1" id="图层_1" xmlns="http://www.w3.org/2000/svg" xmlns:xlink="http://www.w3.org/1999/xlink" x="0px" y="0px"
	 viewBox="0 0 66 66" style="enable-background:new 0 0 66 66;" xml:space="preserve">
<style type="text/css">
	.st0{opacity:1.000000e-02;fill:none;stroke:#FFFFFF;stroke-width:0.1;enable-background:new    ;}
	.st1{fill:#595959;}
</style>
<title>图标/机构/教师/线性</title>
<desc>Created with Sketch.</desc>
<g>
	<rect id="矩形" x="0.1" y="0.1" class="st0" width="65.9" height="65.9"/>
	<path id="形状" class="st1" d="M57,56h3c1.1,0,2,0.9,2,2s-0.9,2-2,2H6c-1.1,0-2-0.9-2-2s0.9-2,2-2h3v-9c0-1.1,0.9-2,2-2h16.5
		c2.2,0,4.1,0.9,5.5,2.4c1.4-1.5,3.3-2.4,5.5-2.4H55c1.1,0,2,0.9,2,2V56z M53,56v-7H38.5c-1.9,0-3.5,1.6-3.5,3.5V56H53L53,56z
		 M31,56v-3.5c0-1.9-1.6-3.5-3.5-3.5H13v7H31z M23.5,39c0.7,0.8,0.6,2.1-0.2,2.8c-0.8,0.7-2.1,0.6-2.8-0.2C16.5,37,14,30.7,14,25
		c0-10.5,8.5-19,19-19c10.5,0,19,8.5,19,19c0,5.7-2.5,12-6.5,16.6c-0.7,0.8-2,0.9-2.8,0.2c-0.8-0.7-0.9-2-0.2-2.8
		c3.4-3.9,5.5-9.3,5.5-14c0-8.3-6.7-15-15-15c-8.3,0-15,6.7-15,15C18,29.7,20.1,35.1,23.5,39z M30,30h6c1.1,0,2,0.9,2,2
		c0,1.1-0.9,2-2,2h-6c-1.1,0-2-0.9-2-2C28,30.9,28.9,30,30,30z"/>
</g>
</svg>
