<?xml version="1.0" encoding="utf-8"?>
<!-- Generator: Adobe Illustrator 23.0.1, SVG Export Plug-In . SVG Version: 6.00 Build 0)  -->
<svg version="1.1" id="图层_1" xmlns="http://www.w3.org/2000/svg" xmlns:xlink="http://www.w3.org/1999/xlink" x="0px" y="0px"
	 viewBox="0 0 66 66" style="enable-background:new 0 0 66 66;" xml:space="preserve">
<style type="text/css">
	.st0{opacity:1.000000e-02;fill:none;stroke:#FFFFFF;stroke-width:0.1;enable-background:new    ;}
	.st1{fill:#595959;}
</style>
<title>图标/机构/分类搜索/线性</title>
<desc>Created with Sketch.</desc>
<g>
	<rect id="矩形" x="0.1" y="0.1" class="st0" width="65.9" height="65.9"/>
	<path id="形状结合" class="st1" d="M48.5,32.3c-1.6,1-3.5,1.7-5.5,1.7c-5.5,0-10-4.5-10-10s4.5-10,10-10s10,4.5,10,10
		c0,2-0.6,3.9-1.7,5.5l4.1,4.1c0.8,0.8,0.8,2,0,2.8l0,0c-0.8,0.8-2,0.8-2.8,0c0,0,0,0,0,0L48.5,32.3z M12,16h16c1.1,0,2,0.9,2,2v0
		c0,1.1-0.9,2-2,2H12c-1.1,0-2-0.9-2-2v0C10,16.9,10.9,16,12,16z M12,32h16c1.1,0,2,0.9,2,2v0c0,1.1-0.9,2-2,2H12c-1.1,0-2-0.9-2-2
		v0C10,32.9,10.9,32,12,32z M12,48h41.9c1.1,0,2,0.9,2,2v0c0,1.1-0.9,2-2,2H12c-1.1,0-2-0.9-2-2v0C10,48.9,10.9,48,12,48z M42.9,30
		c3.3,0,6-2.7,6-6s-2.7-6-6-6c-3.3,0-6,2.7-6,6S39.6,30,42.9,30z"/>
</g>
</svg>
