<?xml version="1.0" encoding="utf-8"?>
<!-- Generator: Adobe Illustrator 23.0.1, SVG Export Plug-In . SVG Version: 6.00 Build 0)  -->
<svg version="1.1" id="图层_1" xmlns="http://www.w3.org/2000/svg" xmlns:xlink="http://www.w3.org/1999/xlink" x="0px" y="0px"
	 viewBox="0 0 66 66" style="enable-background:new 0 0 66 66;" xml:space="preserve">
<style type="text/css">
	.st0{opacity:9.184338e-03;fill:none;stroke:#FFFFFF;stroke-width:0.1;enable-background:new    ;}
	.st1{fill:#595959;}
</style>
<title>图标/机构/教师/线性</title>
<desc>Created with Sketch.</desc>
<g>
	<rect id="矩形" x="0.1" y="0" class="st0" width="65.9" height="65.9"/>
	<path id="形状" class="st1" d="M54,53h2c1.1,0,2,0.9,2,2s-0.9,2-2,2H10c-1.1,0-2-0.9-2-2s0.9-2,2-2h2v-7c0-1.1,0.9-2,2-2h13
		c2.4,0,4.5,1,6,2.7c1.5-1.7,3.6-2.7,6-2.7h13c1.1,0,2,0.9,2,2V53L54,53z M50,53v-4c0-0.6-0.4-1-1-1h-9c-2.8,0-5,2.2-5,5H50L50,53z
		 M16,53h15c0-2.8-2.2-5-5-5h-9c-0.6,0-1,0.4-1,1V53L16,53z M17,25.2C17,16.8,24.2,10,33,10s16,6.8,16,15.2c0,3.2-1.1,6.3-3.1,8.9
		c-1.2,1.5-3.2,3.9-5.4,5.8c-0.2,0.2-0.4,0.3-0.6,0.5v0.6c0,1.2-1.1,2.1-2.3,1.9c-1-0.2-1.7-1.1-1.7-2v-1.3c0-0.6,0.3-1.1,0.7-1.5
		c0.3-0.3,0.7-0.6,1.1-0.9c0.8-0.7,1.5-1.4,2.2-2.2c1.1-1.2,2-2.3,2.7-3.2c1.5-2,2.3-4.3,2.3-6.7c0-6.3-5.4-11.4-12-11.4
		s-12,5.1-12,11.4c0,2.4,0.8,4.8,2.3,6.7c0.7,0.9,1.6,2,2.7,3.2c0.7,0.7,1.4,1.5,2.2,2.2c0.4,0.4,0.8,0.7,1.1,0.9
		c0.5,0.4,0.7,0.9,0.7,1.5v1.4c0,1.2-1.1,2.1-2.3,1.9c-1-0.2-1.7-1.1-1.7-2v-0.5c-0.2-0.2-0.4-0.3-0.6-0.5c-2.2-1.9-4.2-4.3-5.4-5.8
		C18.1,31.5,17,28.4,17,25.2z"/>
</g>
</svg>
