<?xml version="1.0" encoding="utf-8"?>
<!-- Generator: Adobe Illustrator 23.0.1, SVG Export Plug-In . SVG Version: 6.00 Build 0)  -->
<svg version="1.1" id="图层_1" xmlns="http://www.w3.org/2000/svg" xmlns:xlink="http://www.w3.org/1999/xlink" x="0px" y="0px"
	 viewBox="0 0 66 66" style="enable-background:new 0 0 66 66;" xml:space="preserve">
<style type="text/css">
	.st0{opacity:9.184338e-03;fill:none;stroke:#FFFFFF;stroke-width:0.1;enable-background:new    ;}
	.st1{fill:#595959;}
</style>
<title>图标/机构/相册/线性</title>
<desc>Created with Sketch.</desc>
<g>
	<rect id="矩形" x="0.1" y="0" class="st0" width="65.9" height="65.9"/>
	<path id="形状" class="st1" d="M33,54c8.8,0,16.3-5.4,19.4-13.1C49.6,38.5,46,37,42,37c-4,0-7.6,1.5-10.4,3.9
		c-1.1,1-2.1,2.1-3,3.4c-1.6,2.5-2.6,5.4-2.6,8.5c0.3,0.1,0.6,0.2,0.9,0.3c1.4,0.4,2.8,0.7,4.3,0.8C31.8,54,32.4,54,33,54z
		 M12.9,39.1c1.5,5,4.8,9.2,9.2,11.8c0.4-4,2-7.6,4.4-10.5C24.7,38.3,22,37,19,37C16.7,37,14.6,37.8,12.9,39.1z M33,12
		c-11.6,0-21,9.4-21,21c0,0.6,0,1.2,0.1,1.8c2-1.2,4.4-1.8,6.9-1.8c4.1,0,7.7,1.8,10.3,4.6C32.8,34.7,37.2,33,42,33
		c4.3,0,8.4,1.4,11.6,3.8c0.2-1.2,0.4-2.5,0.4-3.8C54,21.4,44.6,12,33,12z M33,8c13.8,0,25,11.2,25,25c0,2.4-0.3,4.7-1,6.9
		c-0.4,1.5-1,3-1.7,4.3C51.2,52.4,42.8,58,33,58c-1.6,0-3.2-0.2-4.8-0.5c-0.5-0.1-1.1-0.2-1.6-0.4c-1.1-0.3-2.2-0.7-3.3-1.1
		c-0.4-0.2-0.7-0.3-1.1-0.5c-5.5-2.6-9.8-7.2-12.2-12.8c-0.7-1.6-1.2-3.2-1.5-4.9C8.2,36.2,8,34.6,8,33C8,19.2,19.2,8,33,8z M30,28
		c-1.7,0-3-1.3-3-3s1.3-3,3-3s3,1.3,3,3S31.7,28,30,28z"/>
</g>
</svg>
