<?xml version="1.0" encoding="utf-8"?>
<!-- Generator: Adobe Illustrator 23.0.1, SVG Export Plug-In . SVG Version: 6.00 Build 0)  -->
<svg version="1.1" id="图层_1" xmlns="http://www.w3.org/2000/svg" xmlns:xlink="http://www.w3.org/1999/xlink" x="0px" y="0px"
	 viewBox="0 0 66 66" style="enable-background:new 0 0 66 66;" xml:space="preserve">
<style type="text/css">
	.st0{opacity:1.000000e-02;fill:none;stroke:#FFFFFF;stroke-width:0.1;enable-background:new    ;}
	.st1{fill:#595959;}
</style>
<title>图标/APP/菜单栏/我的</title>
<desc>Created with Sketch.</desc>
<g>
	<rect id="矩形" x="0.1" y="0.1" class="st0" width="65.9" height="65.9"/>
	<path id="形状" class="st1" d="M42.1,40.5c7.5,2.6,13.6,8.2,16.7,15.7c0.4,1-0.1,2.2-1.1,2.6s-2.2-0.1-2.6-1.1
		C51.5,48.9,42.8,43,33,43c-9.8,0-18.5,5.9-22.2,14.8c-0.4,1-1.6,1.5-2.6,1.1c-1-0.4-1.5-1.6-1.1-2.6c3.1-7.5,9.3-13.1,16.7-15.7
		C18.6,37.4,15,31.6,15,25c0-9.9,8.1-18,18-18c9.9,0,18,8.1,18,18C51,31.6,47.4,37.4,42.1,40.5L42.1,40.5z M33,39
		c7.7,0,14-6.3,14-14s-6.3-14-14-14c-7.7,0-14,6.3-14,14C19,32.7,25.3,39,33,39C33,39,33,39,33,39L33,39z M30,29h6c1.1,0,2,0.9,2,2
		c0,1.1-0.9,2-2,2h-6c-1.1,0-2-0.9-2-2C28,29.9,28.9,29,30,29z"/>
</g>
</svg>
