<?xml version="1.0" encoding="utf-8"?>
<!-- Generator: Adobe Illustrator 23.0.1, SVG Export Plug-In . SVG Version: 6.00 Build 0)  -->
<svg version="1.1" id="图层_1" xmlns="http://www.w3.org/2000/svg" xmlns:xlink="http://www.w3.org/1999/xlink" x="0px" y="0px"
	 viewBox="0 0 66 66" style="enable-background:new 0 0 66 66;" xml:space="preserve">
<style type="text/css">
	.st0{opacity:9.184338e-03;fill:none;stroke:#FFFFFF;stroke-width:0.1;enable-background:new    ;}
	.st1{fill:#595959;}
</style>
<title>图标/机构/首页/线性</title>
<desc>Created with Sketch.</desc>
<g>
	<rect id="矩形" x="0.1" y="0" class="st0" width="65.9" height="65.9"/>
	<path id="形状" class="st1" d="M10.4,21.4L32,11.5c0.6-0.3,1.4-0.3,2,0l21.6,9.9c0.9,0.4,1.4,1.2,1.4,2.2v0.9
		c0,0.9-0.7,1.5-1.5,1.5c-0.2,0-0.4,0-0.6-0.1L34,16.3c-0.6-0.3-1.4-0.3-2,0l-20.8,9.5c-0.8,0.4-1.7,0-2-0.8C9,24.8,9,24.6,9,24.4
		v-0.9C9,22.6,9.5,21.7,10.4,21.4z M11,51h44c1.1,0,2,0.9,2,2s-0.9,2-2,2H11c-1.1,0-2-0.9-2-2S9.9,51,11,51z M15,26.5
		c1.1,0,2,0.9,2,2v19c0,1.1-0.9,2-2,2s-2-0.9-2-2v-19C13,27.4,13.9,26.5,15,26.5z M27,26.5c1.1,0,2,0.9,2,2v19c0,1.1-0.9,2-2,2
		s-2-0.9-2-2v-19C25,27.4,25.9,26.5,27,26.5z M39,26.5c1.1,0,2,0.9,2,2v19c0,1.1-0.9,2-2,2s-2-0.9-2-2v-19
		C37,27.4,37.9,26.5,39,26.5z M51,26.5c1.1,0,2,0.9,2,2v19c0,1.1-0.9,2-2,2s-2-0.9-2-2v-19C49,27.4,49.9,26.5,51,26.5z"/>
</g>
</svg>
