<?xml version="1.0" encoding="utf-8"?>
<!-- Generator: Adobe Illustrator 23.0.1, SVG Export Plug-In . SVG Version: 6.00 Build 0)  -->
<svg version="1.1" id="图层_1" xmlns="http://www.w3.org/2000/svg" xmlns:xlink="http://www.w3.org/1999/xlink" x="0px" y="0px"
	 viewBox="0 0 66 66" style="enable-background:new 0 0 66 66;" xml:space="preserve">
<style type="text/css">
	.st0{opacity:9.184338e-03;fill:none;stroke:#FFFFFF;stroke-width:0.1;enable-background:new    ;}
	.st1{fill:#595959;}
</style>
<title>图标/机构/校区/线性</title>
<desc>Created with Sketch.</desc>
<g>
	<rect id="矩形" x="0.1" y="0" class="st0" width="65.9" height="65.9"/>
	<path id="形状" class="st1" d="M33,40c1,0,2.6-1,4.8-3.1c1.7-1.7,3.6-3.8,4.9-5.6c1.5-2.1,2.3-4.5,2.3-7.1C45,17.4,39.6,12,33,12
		s-12,5.4-12,12.1c0,2.6,0.8,5,2.3,7.1c1.3,1.8,3.2,4,4.9,5.6C30.4,39,32,40,33,40z M33,44c-2.3,0-4.7-1.4-7.6-4.2
		c-1.9-1.8-3.9-4.2-5.4-6.2c-2-2.8-3.1-6-3.1-9.5C17,15.2,24.2,8,33,8s16,7.2,16,16.1c0,3.4-1.1,6.7-3.1,9.5c-1.4,2-3.4,4.3-5.4,6.2
		C37.7,42.6,35.3,44,33,44z M33,31c-3.9,0-7-3.1-7-7s3.1-7,7-7s7,3.1,7,7S36.9,31,33,31z M33,27c1.7,0,3-1.3,3-3s-1.3-3-3-3
		c-1.7,0-3,1.3-3,3S31.3,27,33,27z M37.1,46.7c-0.4-1,0.1-2.2,1.1-2.6c1-0.4,2.2,0.1,2.6,1.1l2,5c0,0.1,0,0.1,0.1,0.2l5.7,0.9
		c0.5,0.1,1.1-0.3,1.1-0.8c0-0.1,0-0.3,0-0.4l-2.6-8.4c-0.3-1.1,0.3-2.2,1.3-2.5c1.1-0.3,2.2,0.3,2.5,1.3l4,13
		c0.3,1.1-0.3,2.2-1.3,2.5C53.3,56,53,56,52.7,56L40.1,54l-13,3.7c-0.7,0.2-1.5,0.2-2.3,0l-12.4-3.8c-1.1-0.3-1.6-1.4-1.3-2.5
		c0,0,0,0,0,0l5-15c0.3-1,1.5-1.6,2.5-1.3c1,0.3,1.6,1.5,1.3,2.5L16,49.3c-0.2,0.7,0.2,1.5,0.9,1.8c0,0,0,0,0,0l8.8,2.7
		c0.2,0.1,0.4,0.1,0.6,0l12.3-3.5L37.1,46.7z"/>
</g>
</svg>
