<?xml version="1.0" encoding="utf-8"?>
<!-- Generator: Adobe Illustrator 23.0.1, SVG Export Plug-In . SVG Version: 6.00 Build 0)  -->
<svg version="1.1" id="图层_1" xmlns="http://www.w3.org/2000/svg" xmlns:xlink="http://www.w3.org/1999/xlink" x="0px" y="0px"
	 viewBox="0 0 66 66" style="enable-background:new 0 0 66 66;" xml:space="preserve">
<style type="text/css">
	.st0{opacity:1.000000e-02;fill:none;stroke:#FFFFFF;stroke-width:0.1;enable-background:new    ;}
	.st1{fill:#595959;}
</style>
<title>图标/机构/简介/线性</title>
<desc>Created with Sketch.</desc>
<g>
	<rect id="矩形" x="0.1" y="0.1" class="st0" width="65.9" height="65.9"/>
	<path id="形状" class="st1" d="M17,22h25c1.1,0,2,0.9,2,2s-0.9,2-2,2H17v22.3c0,0.6,0.4,1,1,1c0.1,0,0.3,0,0.4-0.1L32.2,43
		c0.5-0.2,1.1-0.2,1.6,0l13.8,6.2c0.5,0.2,1.1,0,1.3-0.5c0.1-0.1,0.1-0.3,0.1-0.4V16c0-1.1-0.9-2-2-2H19c-1.1,0-2,0.9-2,2V22z
		 M17,10h32c2.2,0,4,1.8,4,4v38.9c0,1.1-0.9,2-2,2c-0.3,0-0.6-0.1-0.8-0.2l-16.4-7.4c-0.5-0.2-1.1-0.2-1.6,0l-16.4,7.4
		c-1,0.5-2.2,0-2.6-1c-0.1-0.3-0.2-0.5-0.2-0.8V14C13,11.8,14.8,10,17,10z"/>
</g>
</svg>
