<?xml version="1.0" encoding="utf-8"?>
<!-- Generator: Adobe Illustrator 23.0.1, SVG Export Plug-In . SVG Version: 6.00 Build 0)  -->
<svg version="1.1" id="图层_1" xmlns="http://www.w3.org/2000/svg" xmlns:xlink="http://www.w3.org/1999/xlink" x="0px" y="0px"
	 viewBox="0 0 66 66" style="enable-background:new 0 0 66 66;" xml:space="preserve">
<style type="text/css">
	.st0{opacity:1.000000e-02;fill:none;stroke:#FFFFFF;stroke-width:0.1;enable-background:new    ;}
	.st1{fill:#595959;}
</style>
<title>图标/夏令营/报名/线性</title>
<desc>Created with Sketch.</desc>
<g>
	<rect id="矩形" x="0.1" y="0.1" class="st0" width="66.9" height="66.9"/>
	<path id="形状" class="st1" d="M12,10c1.1,0,2,0.9,2,2v42c0,1.1-0.9,2-2,2s-2-0.9-2-2V12C10,10.9,10.9,10,12,10z M55.8,39.9
		c0.6,1.5-0.1,3.3-1.7,3.9C53.7,43.9,53.4,44,53,44H20.1c-1.7,0-3-1.3-3-3V13c0-1.7,1.4-3,3-3H53c1.7,0,3,1.3,3,3
		c0,0.4-0.1,0.8-0.2,1.1L50.6,27L55.8,39.9z M21.1,14v26h30.4l-5-12.3c-0.2-0.5-0.2-1,0-1.5l5-12.3H21.1z"/>
</g>
</svg>
