<?xml version="1.0" encoding="utf-8"?>
<!-- Generator: Adobe Illustrator 23.0.1, SVG Export Plug-In . SVG Version: 6.00 Build 0)  -->
<svg version="1.1" id="图层_1" xmlns="http://www.w3.org/2000/svg" xmlns:xlink="http://www.w3.org/1999/xlink" x="0px" y="0px"
	 viewBox="0 0 66 66" style="enable-background:new 0 0 66 66;" xml:space="preserve">
<style type="text/css">
	.st0{opacity:9.184338e-03;fill:none;stroke:#FFFFFF;stroke-width:0.1;enable-background:new    ;}
	.st1{fill:#595959;}
</style>
<title>图标/机构/课程/线性</title>
<desc>Created with Sketch.</desc>
<g>
	<rect id="矩形" x="0.1" y="0" class="st0" width="65.9" height="65.9"/>
	<path id="形状" class="st1" d="M35.1,12.4l19.4,7.8c1,0.4,1.9,1.3,2.3,2.4c0.8,2.1-0.2,4.5-2.3,5.3l-19.4,7.8
		c-1.4,0.5-2.9,0.5-4.2,0l-19.4-7.8c-1-0.4-1.9-1.3-2.3-2.4c-0.8-2.1,0.2-4.5,2.3-5.3l19.4-7.8C32.2,11.9,33.8,11.9,35.1,12.4z
		 M13.6,24.9l18.7,6.8c0.5,0.2,1,0.2,1.5,0l18.7-6.8c0.5-0.2,0.8-0.8,0.6-1.3c-0.1-0.3-0.3-0.5-0.6-0.6l-18.7-6.8
		c-0.5-0.2-1-0.2-1.5,0l-18.7,6.8c-0.5,0.2-0.8,0.8-0.6,1.3C13.1,24.6,13.3,24.8,13.6,24.9L13.6,24.9z M33.7,41.5l20.6-7.4
		c1-0.4,2.2,0.2,2.6,1.2c0.4,1-0.2,2.2-1.2,2.5l-22,7.9c-0.4,0.2-0.9,0.2-1.4,0l-22-7.9c-1-0.4-1.6-1.5-1.2-2.5s1.5-1.6,2.6-1.2
		l20.6,7.4C32.8,41.7,33.2,41.7,33.7,41.5z M54.3,43.1c1-0.4,2.2,0.2,2.6,1.2c0.4,1-0.2,2.2-1.2,2.5l-22,7.9c-0.4,0.2-0.9,0.2-1.4,0
		l-22-7.9c-1-0.4-1.6-1.5-1.2-2.5s1.5-1.6,2.6-1.2l20.6,7.4c0.4,0.2,0.9,0.2,1.4,0L54.3,43.1z"/>
</g>
</svg>
