<?xml version="1.0" encoding="utf-8"?>
<!-- Generator: Adobe Illustrator 23.0.1, SVG Export Plug-In . SVG Version: 6.00 Build 0)  -->
<svg version="1.1" id="图层_1" xmlns="http://www.w3.org/2000/svg" xmlns:xlink="http://www.w3.org/1999/xlink" x="0px" y="0px"
	 viewBox="0 0 66 66" style="enable-background:new 0 0 66 66;" xml:space="preserve">
<style type="text/css">
	.st0{opacity:1.000000e-02;fill:none;stroke:#FFFFFF;stroke-width:0.1;enable-background:new    ;}
	.st1{fill:#595959;}
</style>
<title>图标/夏令营/优惠券/线性</title>
<desc>Created with Sketch.</desc>
<g>
	<rect id="矩形" x="0.1" y="0.1" class="st0" width="65.9" height="65.9"/>
	<path id="形状" class="st1" d="M59,37c1.1,0,2,0.9,2,2v11c0,1.7-1.3,3-3,3H8c-1.7,0-3-1.3-3-3V39c0-1.1,0.9-2,2-2l0,0
		c2.2,0,4-1.8,4-4s-1.8-4-4-4c-1.1,0-2-0.9-2-2V16c0-1.7,1.3-3,3-3h50c1.7,0,3,1.3,3,3v11c0,1.1-0.9,2-2,2l0,0c-2.2,0-4,1.8-4,4
		S56.8,37,59,37z M51,33c0-3.7,2.5-6.9,6-7.7V17H9v8.3c3.5,0.9,6,4,6,7.7s-2.5,6.9-6,7.7V49h48v-8.3C53.5,39.9,51,36.7,51,33z
		 M22,24c1.1,0,2,0.9,2,2v14c0,1.1-0.9,2-2,2s-2-0.9-2-2V26C20,24.9,20.9,24,22,24z"/>
</g>
</svg>
