<?xml version="1.0" encoding="utf-8"?>
<!-- Generator: Adobe Illustrator 23.0.1, SVG Export Plug-In . SVG Version: 6.00 Build 0)  -->
<svg version="1.1" id="图层_1" xmlns="http://www.w3.org/2000/svg" xmlns:xlink="http://www.w3.org/1999/xlink" x="0px" y="0px"
	 viewBox="0 0 66 66" style="enable-background:new 0 0 66 66;" xml:space="preserve">
<style type="text/css">
	.st0{opacity:1.000000e-02;fill:none;stroke:#FFFFFF;stroke-width:0.1;enable-background:new    ;}
	.st1{fill:#595959;}
</style>
<title>图标/机构/分类搜索/线性</title>
<desc>Created with Sketch.</desc>
<g>
	<rect id="矩形" x="0.1" y="0.1" class="st0" width="65.9" height="65.9"/>
	<path id="形状" class="st1" d="M50.5,31.4C48.5,33,45.8,34,43,34c-6.6,0-12-5.4-12-12s5.4-12,12-12s12,5.4,12,12
		c0,2.3-0.7,4.5-1.8,6.4l4.7,4.7c0.8,0.8,0.8,2,0,2.8s-2,0.8-2.8,0L50.5,31.4L50.5,31.4z M9,12h16c1.1,0,2,0.9,2,2s-0.9,2-2,2H9
		c-1.1,0-2-0.9-2-2S7.9,12,9,12z M9,31h16c1.1,0,2,0.9,2,2c0,1.1-0.9,2-2,2H9c-1.1,0-2-0.9-2-2C7,31.9,7.9,31,9,31z M9,50h48
		c1.1,0,2,0.9,2,2s-0.9,2-2,2H9c-1.1,0-2-0.9-2-2S7.9,50,9,50z M43,30c4.4,0,8-3.6,8-8s-3.6-8-8-8s-8,3.6-8,8S38.6,30,43,30z"/>
</g>
</svg>
