<svg id="图层_1" data-name="图层 1" xmlns="http://www.w3.org/2000/svg" viewBox="0 0 66 66"><defs><style>.cls-1{fill:none;stroke:#fff;stroke-width:0.1px;opacity:0.01;isolation:isolate;}.cls-2{fill:#595959;}</style></defs><title>线性</title><rect id="矩形" class="cls-1" x="0.05" y="0.05" width="65.9" height="65.9"/><path id="形状结合" class="cls-2" d="M54,38a2,2,0,0,1,0,4H16.83L27.56,52.73a2,2,0,0,1-2.83,2.83L10.59,41.41a2,2,0,0,1,0-2.82A1.92,1.92,0,0,1,11.68,38H54ZM41.28,10.59,55.42,24.73a2,2,0,0,1-1.09,3.39H12a2,2,0,0,1,0-4H49.18L38.45,13.41a2,2,0,0,1,2.83-2.82Z" transform="translate(0 0)"/></svg>