<?xml version="1.0" encoding="utf-8"?>
<!-- Generator: Adobe Illustrator 23.0.1, SVG Export Plug-In . SVG Version: 6.00 Build 0)  -->
<svg version="1.1" id="图层_1" xmlns="http://www.w3.org/2000/svg" xmlns:xlink="http://www.w3.org/1999/xlink" x="0px" y="0px"
	 viewBox="0 0 66 66" style="enable-background:new 0 0 66 66;" xml:space="preserve">
<style type="text/css">
	.st0{opacity:1.000000e-02;fill:none;stroke:#FFFFFF;stroke-width:0.1;enable-background:new    ;}
	.st1{fill:#595959;}
</style>
<title>图标/经典/删除/块状</title>
<desc>Created with Sketch.</desc>
<g>
	<rect id="矩形" x="0.1" y="0.1" class="st0" width="65.9" height="65.9"/>
	<path id="形状" class="st1" d="M12,19H9c-1.1,0-2-0.9-2-2s0.9-2,2-2h11V9c0-1.1,0.9-2,2-2h22c1.1,0,2,0.9,2,2v6h11
		c1.1,0,2,0.9,2,2s-0.9,2-2,2h-3v38c0,1.1-0.9,2-2,2H14c-1.1,0-2-0.9-2-2V19z M24,15h18v-4H24V15z M26,27c-1.1,0-2,0.9-2,2v14
		c0,1.1,0.9,2,2,2s2-0.9,2-2V29C28,27.9,27.1,27,26,27z M40,27c-1.1,0-2,0.9-2,2v14c0,1.1,0.9,2,2,2s2-0.9,2-2V29
		C42,27.9,41.1,27,40,27z"/>
</g>
</svg>
