<?xml version="1.0" encoding="utf-8"?>
<!-- Generator: Adobe Illustrator 23.0.1, SVG Export Plug-In . SVG Version: 6.00 Build 0)  -->
<svg version="1.1" id="图层_1" xmlns="http://www.w3.org/2000/svg" xmlns:xlink="http://www.w3.org/1999/xlink" x="0px" y="0px"
	 viewBox="0 0 66 66" style="enable-background:new 0 0 66 66;" xml:space="preserve">
<style type="text/css">
	.st0{opacity:1.000000e-02;fill:none;stroke:#FFFFFF;stroke-width:0.1;enable-background:new    ;}
	.st1{fill:#595959;}
</style>
<title>图标/基础/加号/圆形/块状</title>
<desc>Created with Sketch.</desc>
<g>
	<rect id="矩形" x="0.1" y="0.1" class="st0" width="65.9" height="65.9"/>
	<path id="合并形状" class="st1" d="M33,4c16,0,29,13,29,29S49,62,33,62S4,49,4,33S17,4,33,4z M45.9,31.1H35.1V21
		c0-1.1-0.9-2-2.1-2s-2.1,0.9-2.1,2v10.1H20.1c-1.2,0-2.1,0.9-2.1,2s0.9,2,2.1,2h10.8v10c0,1.1,0.9,2,2.1,2s2.1-0.9,2.1-2V35h10.8
		c1.2,0,2.1-0.9,2.1-2S47.1,31.1,45.9,31.1z"/>
</g>
</svg>
