<?xml version="1.0" encoding="utf-8"?>
<!-- Generator: Adobe Illustrator 23.0.1, SVG Export Plug-In . SVG Version: 6.00 Build 0)  -->
<svg version="1.1" id="图层_1" xmlns="http://www.w3.org/2000/svg" xmlns:xlink="http://www.w3.org/1999/xlink" x="0px" y="0px"
	 viewBox="0 0 66 66" style="enable-background:new 0 0 66 66;" xml:space="preserve">
<style type="text/css">
	.st0{opacity:1.000000e-02;fill:none;stroke:#FFFFFF;stroke-width:0.1;enable-background:new    ;}
	.st1{fill:#595959;}
</style>
<title>图标/加载</title>
<desc>Created with Sketch.</desc>
<g>
	<rect id="矩形" x="0.1" y="0.1" class="st0" width="65.9" height="65.9"/>
	<path id="形状" class="st1" d="M33,22c-1.1,0-2-0.9-2-2V8c0-1.1,0.9-2,2-2s2,0.9,2,2v12C35,21.1,34.1,22,33,22z M27.5,23.5
		c-1,0.6-2.2,0.2-2.7-0.7l-6-10.4c-0.6-1-0.2-2.2,0.7-2.7c1-0.6,2.2-0.2,2.7,0.7l6,10.4C28.8,21.7,28.5,22.9,27.5,23.5z M23.5,27.5
		c-0.6,1-1.8,1.3-2.7,0.7l-10.4-6c-1-0.6-1.3-1.8-0.7-2.7s1.8-1.3,2.7-0.7l10.4,6C23.7,25.3,24,26.5,23.5,27.5z M22,33
		c0,1.1-0.9,2-2,2H8c-1.1,0-2-0.9-2-2s0.9-2,2-2h12C21.1,31,22,31.9,22,33z M23.5,38.5c0.6,1,0.2,2.2-0.7,2.7l-10.4,6
		c-1,0.6-2.2,0.2-2.7-0.7s-0.2-2.2,0.7-2.7l10.4-6C21.7,37.2,22.9,37.5,23.5,38.5z M27.5,42.5c1,0.6,1.3,1.8,0.7,2.7l-6,10.4
		c-0.6,1-1.8,1.3-2.7,0.7c-1-0.6-1.3-1.8-0.7-2.7l6-10.4C25.3,42.3,26.5,42,27.5,42.5z M33,44c1.1,0,2,0.9,2,2v12c0,1.1-0.9,2-2,2
		s-2-0.9-2-2V46C31,44.9,31.9,44,33,44z M38.5,42.5c1-0.6,2.2-0.2,2.7,0.7l6,10.4c0.6,1,0.2,2.2-0.7,2.7c-1,0.6-2.2,0.2-2.7-0.7
		l-6-10.4C37.2,44.3,37.5,43.1,38.5,42.5z M42.5,38.5c0.6-1,1.8-1.3,2.7-0.7l10.4,6c1,0.6,1.3,1.8,0.7,2.7c-0.6,1-1.8,1.3-2.7,0.7
		l-10.4-6C42.3,40.7,42,39.5,42.5,38.5z M44,33c0-1.1,0.9-2,2-2h12c1.1,0,2,0.9,2,2s-0.9,2-2,2H46C44.9,35,44,34.1,44,33z
		 M42.5,27.5c-0.6-1-0.2-2.2,0.7-2.7l10.4-6c1-0.6,2.2-0.2,2.7,0.7c0.6,1,0.2,2.2-0.7,2.7l-10.4,6C44.3,28.8,43.1,28.5,42.5,27.5z
		 M38.5,23.5c-1-0.6-1.3-1.8-0.7-2.7l6-10.4c0.6-1,1.8-1.3,2.7-0.7c1,0.6,1.3,1.8,0.7,2.7l-6,10.4C40.7,23.7,39.5,24,38.5,23.5z"/>
</g>
</svg>
