<?xml version="1.0" encoding="utf-8"?>
<!-- Generator: Adobe Illustrator 23.0.1, SVG Export Plug-In . SVG Version: 6.00 Build 0)  -->
<svg version="1.1" id="图层_1" xmlns="http://www.w3.org/2000/svg" xmlns:xlink="http://www.w3.org/1999/xlink" x="0px" y="0px"
	 viewBox="0 0 66 66" style="enable-background:new 0 0 66 66;" xml:space="preserve">
<style type="text/css">
	.st0{opacity:1.000000e-02;fill:none;stroke:#FFFFFF;stroke-width:0.1;enable-background:new    ;}
	.st1{fill:#595959;}
</style>
<title>图标/经典/历史/线性</title>
<desc>Created with Sketch.</desc>
<g>
	<rect id="矩形" x="0.1" y="0.1" class="st0" width="65.9" height="65.9"/>
	<path id="形状" class="st1" d="M57.5,24.8l-7.7-1.2c-1.1-0.2-1.8-1.2-1.7-2.3c0.2-1.1,1.2-1.8,2.3-1.7l4.1,0.6
		C50.1,12.9,42.1,8,33,8C19.2,8,8,19.2,8,33s11.2,25,25,25c13.5,0,24.4-10.6,25-24l0,0c0,0,0,0,0,0c0-1.1,0.9-2,2-2s2,0.9,2,2
		c0,0.1,0,0.1,0,0.2C61.3,49.7,48.6,62,33,62C17,62,4,49,4,33S17,4,33,4c12.1,0,22.5,7.4,26.8,18c0.1,0.3,0.2,0.5,0.2,0.8
		c0,1.1-0.9,2-2,2C57.8,24.8,57.7,24.8,57.5,24.8L57.5,24.8z M33,35h14c1.1,0,2,0.9,2,2s-0.9,2-2,2H31c-0.6,0-1.1-0.2-1.4-0.6
		C29.2,38.1,29,37.6,29,37V17c0-1.1,0.9-2,2-2c1.1,0,2,0.9,2,2V35L33,35z"/>
</g>
</svg>
