<?xml version="1.0" encoding="utf-8"?>
<!-- Generator: Adobe Illustrator 23.0.1, SVG Export Plug-In . SVG Version: 6.00 Build 0)  -->
<svg version="1.1" id="图层_1" xmlns="http://www.w3.org/2000/svg" xmlns:xlink="http://www.w3.org/1999/xlink" x="0px" y="0px"
	 viewBox="0 0 66 66" style="enable-background:new 0 0 66 66;" xml:space="preserve">
<style type="text/css">
	.st0{opacity:1.000000e-02;fill:none;stroke:#FFFFFF;stroke-width:0.1;enable-background:new    ;}
	.st1{fill:#595959;}
</style>
<title>图标/基础/叉号/圆形/线性</title>
<desc>Created with Sketch.</desc>
<g>
	<rect id="矩形" x="0.1" y="0.1" class="st0" width="65.9" height="65.9"/>
	<path id="形状" class="st1" d="M53.5,12.5c11.3,11.3,11.3,29.7,0,41s-29.7,11.3-41,0s-11.3-29.7,0-41S42.2,1.2,53.5,12.5z M33,58
		c3.3,0,6.4-0.6,9.4-1.8c3.1-1.3,5.9-3.1,8.3-5.5s4.2-5.2,5.5-8.3c1.2-3,1.8-6.2,1.8-9.4c0-3.3-0.6-6.4-1.8-9.4
		c-1.3-3.1-3.1-5.9-5.5-8.3s-5.2-4.2-8.3-5.5C39.4,8.6,36.2,8,33,8c-3.3,0-6.4,0.6-9.4,1.8c-3.1,1.3-5.9,3.1-8.3,5.5
		s-4.2,5.2-5.5,8.3C8.6,26.6,8,29.8,8,33c0,3.3,0.6,6.4,1.8,9.4c1.3,3.1,3.1,5.9,5.5,8.3s5.2,4.2,8.3,5.5C26.6,57.4,29.8,58,33,58z
		 M33,30.2l7.8-7.8c0.8-0.8,2-0.8,2.8,0c0.8,0.8,0.8,2,0,2.8L35.8,33l7.8,7.8c0.8,0.8,0.8,2,0,2.8s-2,0.8-2.8,0L33,35.8l-7.8,7.8
		c-0.8,0.8-2,0.8-2.8,0c-0.8-0.8-0.8-2,0-2.8l7.8-7.8l-7.8-7.8c-0.8-0.8-0.8-2,0-2.8c0.8-0.8,2-0.8,2.8,0L33,30.2z"/>
</g>
</svg>
