<?xml version="1.0" encoding="utf-8"?>
<!-- Generator: Adobe Illustrator 23.0.1, SVG Export Plug-In . SVG Version: 6.00 Build 0)  -->
<svg version="1.1" id="图层_1" xmlns="http://www.w3.org/2000/svg" xmlns:xlink="http://www.w3.org/1999/xlink" x="0px" y="0px"
	 viewBox="0 0 66 66" style="enable-background:new 0 0 66 66;" xml:space="preserve">
<style type="text/css">
	.st0{opacity:1.000000e-02;fill:none;stroke:#FFFFFF;stroke-width:0.1;enable-background:new    ;}
	.st1{fill:#595959;}
</style>
<title>图标/基础/箭头/圆形/右/块状</title>
<desc>Created with Sketch.</desc>
<g>
	<rect id="矩形" x="0.1" y="0.1" class="st0" width="65.9" height="65.9"/>
	<path id="Shape" class="st1" d="M62,33C62,17,49,4,33,4S4,17,4,33s13,29,29,29S62,49,62,33z M27,46.9c-0.8-0.8-0.7-2.1,0.1-2.9
		l11.8-11L27.1,22c-0.8-0.8-0.9-2.1-0.1-2.9c0.8-0.8,2.1-0.9,2.9-0.1l13.4,12.5c0.4,0.4,0.6,0.9,0.6,1.5s-0.2,1.1-0.6,1.5L29.9,47
		C29.1,47.8,27.8,47.7,27,46.9z"/>
</g>
</svg>
