<?xml version="1.0" encoding="utf-8"?>
<!-- Generator: Adobe Illustrator 23.0.1, SVG Export Plug-In . SVG Version: 6.00 Build 0)  -->
<svg version="1.1" id="图层_1" xmlns="http://www.w3.org/2000/svg" xmlns:xlink="http://www.w3.org/1999/xlink" x="0px" y="0px"
	 viewBox="0 0 66 66" style="enable-background:new 0 0 66 66;" xml:space="preserve">
<style type="text/css">
	.st0{opacity:1.000000e-02;fill:none;stroke:#FFFFFF;stroke-width:0.1;enable-background:new    ;}
	.st1{fill:#595959;}
</style>
<title>图标/基础/叹号/圆形/线性</title>
<desc>Created with Sketch.</desc>
<g>
	<rect id="矩形" x="0.1" y="0.1" class="st0" width="65.9" height="65.9"/>
	<path id="Shape" class="st1" d="M33,8.1c3.4,0,6.6,0.7,9.7,2c3,1.3,5.6,3.1,7.9,5.3c2.3,2.3,4.1,5,5.3,7.9c1.3,3.1,2,6.3,2,9.7
		s-0.7,6.6-2,9.7c-1.3,3-3.1,5.6-5.3,7.9c-2.3,2.3-5,4.1-7.9,5.3c-3.1,1.3-6.3,2-9.7,2s-6.6-0.7-9.7-2c-3-1.3-5.6-3.1-7.9-5.3
		c-2.3-2.3-4.1-5-5.3-7.9c-1.3-3.1-2-6.3-2-9.7s0.7-6.6,2-9.7c1.3-3,3.1-5.6,5.3-7.9c2.3-2.3,5-4.1,7.9-5.3
		C26.4,8.7,29.6,8.1,33,8.1L33,8.1z M33,4C17,4,4,17,4,33s13,29,29,29s29-13,29-29S49,4,33,4L33,4z M33,40.2c-1.3,0-2.3-1-2.3-2.3
		V17.1c0-1.3,1-2.3,2.3-2.3s2.3,1,2.3,2.3V38C35.3,39.2,34.3,40.2,33,40.2z M30.5,46.4c0,1.4,1.1,2.5,2.5,2.5c1.4,0,2.5-1.1,2.5-2.5
		s-1.1-2.5-2.5-2.5C31.6,43.9,30.5,45,30.5,46.4z"/>
</g>
</svg>
