<?xml version="1.0" encoding="utf-8"?>
<!-- Generator: Adobe Illustrator 23.0.1, SVG Export Plug-In . SVG Version: 6.00 Build 0)  -->
<svg version="1.1" id="图层_1" xmlns="http://www.w3.org/2000/svg" xmlns:xlink="http://www.w3.org/1999/xlink" x="0px" y="0px"
	 viewBox="0 0 66 66" style="enable-background:new 0 0 66 66;" xml:space="preserve">
<style type="text/css">
	.st0{opacity:1.000000e-02;fill:none;stroke:#FFFFFF;stroke-width:0.1;enable-background:new    ;}
	.st1{fill:#595959;}
</style>
<title>图标/基础/箭头/圆形/左/线性</title>
<desc>Created with Sketch.</desc>
<g>
	<rect id="矩形" x="0.1" y="0.1" class="st0" width="65.9" height="65.9"/>
	<path id="Shape" class="st1" d="M8,33c0-3.4,0.7-6.6,2-9.7c1.3-3,3.1-5.6,5.4-7.9c2.3-2.3,5-4.1,7.9-5.4c3.1-1.3,6.4-2,9.7-2
		s6.6,0.7,9.7,2c3,1.3,5.6,3.1,7.9,5.4c2.3,2.3,4.1,5,5.4,7.9c1.3,3.1,2,6.4,2,9.7s-0.7,6.6-2,9.7c-1.3,3-3.1,5.6-5.4,7.9
		c-2.3,2.3-5,4.1-7.9,5.4c-3.1,1.3-6.4,2-9.7,2s-6.6-0.7-9.7-2c-3-1.3-5.6-3.1-7.9-5.4c-2.3-2.3-4.1-5-5.4-7.9C8.7,39.6,8,36.4,8,33
		L8,33z M4,33c0,16,13,29,29,29s29-13,29-29S49,4,33,4S4,17,4,33L4,33z M22,33c0,0.6,0.2,1.1,0.7,1.5l13.8,12.9
		c0.8,0.8,2.2,0.8,3-0.1c0.8-0.8,0.8-2.2-0.1-3L27.2,33l12.1-11.4c0.8-0.8,0.9-2.1,0.1-3c-0.8-0.8-2.1-0.9-3-0.1L22.7,31.5
		C22.2,31.9,22,32.4,22,33z"/>
</g>
</svg>
