<?xml version="1.0" encoding="utf-8"?>
<!-- Generator: Adobe Illustrator 23.0.1, SVG Export Plug-In . SVG Version: 6.00 Build 0)  -->
<svg version="1.1" id="图层_1" xmlns="http://www.w3.org/2000/svg" xmlns:xlink="http://www.w3.org/1999/xlink" x="0px" y="0px"
	 viewBox="0 0 66 66" style="enable-background:new 0 0 66 66;" xml:space="preserve">
<style type="text/css">
	.st0{opacity:1.000000e-02;fill:none;stroke:#FFFFFF;stroke-width:0.1;enable-background:new    ;}
	.st1{fill:#595959;}
</style>
<title>图标/基础/箭头/圆形/左/块状</title>
<desc>Created with Sketch.</desc>
<g>
	<rect id="矩形" x="0.1" y="0.1" class="st0" width="65.9" height="65.9"/>
	<path id="Shape" class="st1" d="M4,33c0,16,13,29,29,29s29-13,29-29S49,4,33,4S4,17,4,33z M39,19.1c0.8,0.8,0.7,2.1-0.1,2.9
		L27.1,33l11.8,11c0.8,0.8,0.9,2.1,0.1,2.9c-0.8,0.8-2.1,0.9-2.9,0.1L22.7,34.5c-0.4-0.4-0.6-0.9-0.6-1.5s0.2-1.1,0.6-1.5L36.1,19
		C36.9,18.2,38.2,18.3,39,19.1z"/>
</g>
</svg>
