<?xml version="1.0" encoding="utf-8"?>
<!-- Generator: Adobe Illustrator 23.0.1, SVG Export Plug-In . SVG Version: 6.00 Build 0)  -->
<svg version="1.1" id="图层_1" xmlns="http://www.w3.org/2000/svg" xmlns:xlink="http://www.w3.org/1999/xlink" x="0px" y="0px"
	 viewBox="0 0 66 66" style="enable-background:new 0 0 66 66;" xml:space="preserve">
<style type="text/css">
	.st0{opacity:1.000000e-02;fill:none;stroke:#FFFFFF;stroke-width:0.1;enable-background:new    ;}
	.st1{fill:#595959;}
</style>
<title>图标/APP/菜单栏/帮选课</title>
<desc>Created with Sketch.</desc>
<g>
	<rect id="矩形" x="0.1" y="0.1" class="st0" width="65.9" height="65.9"/>
	<path id="形状" class="st1" d="M21,52.2l-9.9,0.6C10,52.9,9.1,52.1,9,51c0,0,0-0.1,0-0.1V14.1c0-1.1,0.9-2,2-2c0,0,0.1,0,0.1,0
		l9.9,0.6V8.2c0-1.1,0.9-2,2-2c0.1,0,0.1,0,0.2,0l32,2.7c1,0.1,1.8,1,1.8,2v44.3c0,1-0.8,1.9-1.8,2l-32,2.7
		c-1.1,0.1-2.1-0.7-2.2-1.8c0-0.1,0-0.1,0-0.2V52.2z M21,48.2V16.8l-8-0.5v32.5L21,48.2L21,48.2z M25,10.3v45.3l28-2.3V12.7L25,10.3
		z M45,27c1.1,0,2,0.9,2,2v8c0,1.1-0.9,2-2,2s-2-0.9-2-2v-8C43,27.9,43.9,27,45,27z"/>
</g>
</svg>
