<?xml version="1.0" encoding="utf-8"?>
<!-- Generator: Adobe Illustrator 23.0.1, SVG Export Plug-In . SVG Version: 6.00 Build 0)  -->
<svg version="1.1" id="图层_1" xmlns="http://www.w3.org/2000/svg" xmlns:xlink="http://www.w3.org/1999/xlink" x="0px" y="0px"
	 viewBox="0 0 66 66" style="enable-background:new 0 0 66 66;" xml:space="preserve">
<style type="text/css">
	.st0{opacity:1.000000e-02;fill:none;stroke:#FFFFFF;stroke-width:0.1;enable-background:new    ;}
	.st1{fill:#595959;}
</style>
<title>图标/夏令营/报名/线性</title>
<desc>Created with Sketch.</desc>
<g>
	<rect id="矩形" x="0.1" y="0.1" class="st0" width="65.9" height="65.9"/>
	<path id="形状" class="st1" d="M9,7c1.1,0,2,0.9,2,2v48c0,1.1-0.9,2-2,2s-2-0.9-2-2V9C7,7.9,7.9,7,9,7z M17,10h40
		c1.1,0,2,0.9,2,2c0,0.3-0.1,0.6-0.2,0.9L50.9,29l7.8,16.1c0.5,1,0.1,2.2-0.9,2.7C57.6,47.9,57.3,48,57,48H17c-1.1,0-2-0.9-2-2V12
		C15,10.9,15.9,10,17,10z M19,14v30h34.8l-7.3-15l7.3-15H19z"/>
</g>
</svg>
