<?xml version="1.0" encoding="utf-8"?>
<!-- Generator: Adobe Illustrator 23.0.1, SVG Export Plug-In . SVG Version: 6.00 Build 0)  -->
<svg version="1.1" id="图层_1" xmlns="http://www.w3.org/2000/svg" xmlns:xlink="http://www.w3.org/1999/xlink" x="0px" y="0px"
	 viewBox="0 0 66 66" style="enable-background:new 0 0 66 66;" xml:space="preserve">
<style type="text/css">
	.st0{opacity:1.000000e-02;fill:none;stroke:#FFFFFF;stroke-width:0.1;enable-background:new    ;}
	.st1{fill:#595959;}
</style>
<title>图标/经典/搜索/线性</title>
<desc>Created with Sketch.</desc>
<g>
	<rect id="矩形" x="0.1" y="0.1" class="st0" width="65.9" height="65.9"/>
	<path id="形状" class="st1" d="M44.5,47.3C40.3,50.9,34.9,53,29,53C15.7,53,5,42.3,5,29S15.7,5,29,5s24,10.7,24,24
		c0,5.9-2.1,11.3-5.7,15.5l11.2,11.2c0.8,0.8,0.8,2,0,2.8c-0.8,0.8-2,0.8-2.8,0L44.5,47.3L44.5,47.3z M29,49c11,0,20-9,20-20
		S40,9,29,9S9,18,9,29S18,49,29,49z"/>
</g>
</svg>
