<?xml version="1.0" encoding="utf-8"?>
<!-- Generator: Adobe Illustrator 23.0.1, SVG Export Plug-In . SVG Version: 6.00 Build 0)  -->
<svg version="1.1" id="图层_1" xmlns="http://www.w3.org/2000/svg" xmlns:xlink="http://www.w3.org/1999/xlink" x="0px" y="0px"
	 viewBox="0 0 66 66" style="enable-background:new 0 0 66 66;" xml:space="preserve">
<style type="text/css">
	.st0{opacity:1.000000e-02;fill:none;stroke:#FFFFFF;stroke-width:0.1;enable-background:new    ;}
	.st1{fill:#595959;}
</style>
<title>图标/机构/相册/线性</title>
<desc>Created with Sketch.</desc>
<g>
	<rect id="矩形" x="0.1" y="0.1" class="st0" width="65.9" height="65.9"/>
	<path id="形状" class="st1" d="M9.6,41.9c2.3,6,6.8,10.9,12.5,13.6C22.1,54.7,22,53.9,22,53c0-4.7,1.6-9,4.4-12.5
		c-2-2.2-4.8-3.5-7.9-3.5C14.8,37,11.5,38.9,9.6,41.9L9.6,41.9z M8.3,37.1C11,34.5,14.6,33,18.5,33c4.1,0,8,1.7,10.7,4.7
		c3.5-2.9,8-4.7,12.8-4.7c5.9,0,11.3,2.6,15.1,6.8c0.6-2.2,0.9-4.5,0.9-6.8C58,19.2,46.8,8,33,8S8,19.2,8,33
		C8,34.4,8.1,35.8,8.3,37.1z M26.5,57.2c2.1,0.5,4.2,0.8,6.5,0.8c9.8,0,18.3-5.6,22.4-13.8C52.4,39.8,47.5,37,42,37
		c-8.8,0-16,7.2-16,16C26,54.4,26.2,55.8,26.5,57.2L26.5,57.2z M33,62C17,62,4,49,4,33S17,4,33,4s29,13,29,29S49,62,33,62z M29,30
		c-2.2,0-4-1.8-4-4s1.8-4,4-4s4,1.8,4,4S31.2,30,29,30z"/>
</g>
</svg>
