<?xml version="1.0" encoding="utf-8"?>
<!-- Generator: Adobe Illustrator 23.0.1, SVG Export Plug-In . SVG Version: 6.00 Build 0)  -->
<svg version="1.1" id="图层_1" xmlns="http://www.w3.org/2000/svg" xmlns:xlink="http://www.w3.org/1999/xlink" x="0px" y="0px"
	 viewBox="0 0 66 66" style="enable-background:new 0 0 66 66;" xml:space="preserve">
<style type="text/css">
	.st0{opacity:1.000000e-02;fill:none;stroke:#FFFFFF;stroke-width:0.1;enable-background:new    ;}
	.st1{fill:#595959;}
</style>
<title>图标/机构/评价/线性</title>
<desc>Created with Sketch.</desc>
<g>
	<rect id="矩形" x="0.1" y="0.1" class="st0" width="65.9" height="65.9"/>
	<path id="形状" class="st1" d="M60,60H43.6c-3.3,1.3-6.9,2-10.6,2C17,62,4,49,4,33S17,4,33,4s29,13,29,29c0,3.7-0.7,7.3-2,10.6
		V60z M56,43.6c0-0.5,0.1-1,0.3-1.5c1.1-2.9,1.7-6,1.7-9.1C58,19.2,46.8,8,33,8S8,19.2,8,33s11.2,25,25,25c3.2,0,6.3-0.6,9.1-1.7
		c0.5-0.2,1-0.3,1.5-0.3H56V43.6z M44.3,26.3c3.1,3.1,3.1,8.2,0,11.3l-5.7,5.7c-3.1,3.1-8.2,3.1-11.3,0l-5.7-5.7
		c-3.1-3.1-3.1-8.2,0-11.3s8.2-3.1,11.3,0C36.1,23.2,41.2,23.2,44.3,26.3z M30.1,29.1c-1.6-1.6-4.1-1.6-5.7,0s-1.6,4.1,0,5.7
		l5.7,5.7c1.6,1.6,4.1,1.6,5.7,0l5.7-5.7c1.6-1.6,1.6-4.1,0-5.7c-1.6-1.6-4.1-1.6-5.7,0L33,32L30.1,29.1z"/>
</g>
</svg>
