<?xml version="1.0" encoding="utf-8"?>
<!-- Generator: Adobe Illustrator 23.0.1, SVG Export Plug-In . SVG Version: 6.00 Build 0)  -->
<svg version="1.1" id="图层_1" xmlns="http://www.w3.org/2000/svg" xmlns:xlink="http://www.w3.org/1999/xlink" x="0px" y="0px"
	 viewBox="0 0 66 66" style="enable-background:new 0 0 66 66;" xml:space="preserve">
<style type="text/css">
	.st0{opacity:1.000000e-02;fill:none;stroke:#FFFFFF;stroke-width:0.1;enable-background:new    ;}
	.st1{fill:#595959;}
</style>
<title>图标/基础/i/圆形/无底</title>
<desc>Created with Sketch.</desc>
<g>
	<rect id="矩形" x="0.1" y="0.1" class="st0" width="65.9" height="65.9"/>
	<path id="形状" class="st1" d="M33,22c1.1,0,2,0.9,2,2v26h6c1.1,0,2,0.9,2,2s-0.9,2-2,2H25c-1.1,0-2-0.9-2-2s0.9-2,2-2h6V26h-4
		c-1.1,0-2-0.9-2-2s0.9-2,2-2H33z M33,18c-1.7,0-3-1.3-3-3s1.3-3,3-3c1.7,0,3,1.3,3,3S34.7,18,33,18z"/>
</g>
</svg>
